<?xml version="1.0" encoding="utf-8"?>
<!-- Generator: Adobe Illustrator 27.5.0, SVG Export Plug-In . SVG Version: 6.00 Build 0)  -->
<svg version="1.1" xmlns="http://www.w3.org/2000/svg" xmlns:xlink="http://www.w3.org/1999/xlink" x="0px" y="0px"
	 viewBox="0 0 3710 3710" style="enable-background:new 0 0 3710 3710;" xml:space="preserve">
<g id="Background">
	<g>
		<g>
			<rect style="fill:#FFFFFF;" width="3710" height="3710"/>
		</g>
	</g>
</g>
<g id="Illustration">
	<g>
		<linearGradient id="SVGID_1_" gradientUnits="userSpaceOnUse" x1="3417.1062" y1="3624.8921" x2="1380.2898" y2="1426.4233">
			<stop  offset="0" style="stop-color:#DAE3FE"/>
			<stop  offset="1" style="stop-color:#E9EFFD"/>
		</linearGradient>
		<path style="fill:url(#SVGID_1_);" d="M3142.851,2368.571c-282.047,649.749-1026.559,928.831-1609.896,881.247
			c-159.275-12.992-479.739-39.134-729.96-272.349c-480.532-447.875-406.526-1384.058,53.482-1935.231
			c59.239-70.979,469.286-546.536,1108.267-540.171c467.827,4.661,796.19,265.121,836.118,297.569
			c50.439,40.991,161.688,138.399,261.95,292.93C3298.394,1455.661,3319.102,1962.543,3142.851,2368.571z"/>
		<g style="opacity:0.68;">
			<path style="fill:#91B3FA;" d="M1384.945,2241.994c0,0-43.828-1087.994-443.842-1754.806
				c-26.89-44.824-92.632-42.373-115.818,4.475C670.247,804.922,300.936,1774.782,1384.945,2241.994z"/>
			<path style="opacity:0.5;fill:#FFFFFF;" d="M1294.396,2154.755c2.056,2.977-2.07,6.247-4.506,3.573
				c-89.824-98.572-421.164-561.485-422.13-1355.594c-0.003-2.551,3.793-2.783,4.016-0.242
				C888.232,989.729,969.349,1684.12,1294.396,2154.755z"/>
		</g>
		<g style="opacity:0.78;">
			<path style="fill:#BDD0FB;" d="M1186.973,2510.456c0,0-132.409-1143.07-534.391-1819.848
				c-27.022-45.495-83.333-38.721-99.189,12.096C447.367,1042.51,214.28,2087.499,1186.973,2510.456z"/>
			<path style="opacity:0.5;fill:#FFFFFF;" d="M1101.525,2424.349c2.027,3.004-1.236,6.711-3.563,4.05
				c-85.811-98.088-410.996-564.5-480.966-1400.786c-0.224-2.686,3.018-3.173,3.432-0.511
				C650.878,1223.249,781.078,1949.403,1101.525,2424.349z"/>
		</g>
		<g>
			<g>
				<g>
					
						<linearGradient id="SVGID_00000026150582863776122890000015320641954907561344_" gradientUnits="userSpaceOnUse" x1="1881.0179" y1="3454.3027" x2="1881.0179" y2="1555.3639">
						<stop  offset="0" style="stop-color:#09005D"/>
						<stop  offset="1" style="stop-color:#1A0F91"/>
					</linearGradient>
					<path style="fill:url(#SVGID_00000026150582863776122890000015320641954907561344_);" d="M534.18,1366.532v1318.294
						c0,108.447,86.419,197.131,194.831,199.927c481.505,12.416,1886.954,42.523,2345.314,35.766
						c78.781-1.161,142.6-64.204,144.872-142.96c8.838-306.258,23.193-1042.705-29.929-1384.609
						c-11.187-72.001-71.962-125.842-144.79-128.171c-403.441-12.906-1910.045-53.888-2368.191-43.599
						C597.273,1222.953,534.18,1287.497,534.18,1366.532z"/>
					<path style="fill:#91B3FA;" d="M616.899,1363.609v1301.442c0,65.794,50.827,119.403,114.137,120.387l2277.347,32.813
						c62.768,0.975,114.219-51.499,114.452-116.727l4.276-1289.815c0.168-46.64-35.592-84.855-80.464-85.99l-2338.216-54.934
						C658.244,1269.516,616.899,1311.444,616.899,1363.609z"/>
				</g>
			</g>
			<g>
				<path style="opacity:0.31;fill:#FFFFFF;" d="M2939.989,2764.168l-2183.331-25.107c-47.146,1.146-85.673-49.12-85.361-111.369
					l5.557-1106.173c4.817-117.376,56.886-170.087,103.305-169.854l2160.646,70.261c46.42,0.233,83.801,50.103,83.493,111.387
					l-5.236,1042.221C3018.761,2635.856,2985.677,2763.057,2939.989,2764.168z"/>
				<g>
					<path style="fill-rule:evenodd;clip-rule:evenodd;fill:#FFFFFF;" d="M2252.088,1580.3l105.87,0.532
						c3.573,0.018,6.477,2.576,6.535,5.756l0.794,43.951c0.065,3.585,3.708,6.276,7.677,5.672l193.602-29.446
						c0.377-0.057,0.76-0.086,1.143-0.084l133.022,0.668c0.329,0.002,0.657-0.019,0.983-0.061l150.417-19.483
						c1.833-0.237,3.694,0.225,5.124,1.275l33.078,24.258c2.742,2.011,3.193,5.595,1.019,8.09l-40.851,46.903
						c-1.171,1.345-1.624,3.078-1.241,4.746l17.756,77.303c0.284,1.236,0.111,2.52-0.493,3.66l-63.102,119.104
						c-2.087,3.939-8.112,4.528-11.119,1.086l-36.899-42.224c-1.185-1.355-1.641-3.105-1.246-4.785l15.962-67.992
						c1.368-5.827-6.791-9.537-11.287-5.133l-39.451,38.638c-0.747,0.731-1.69,1.282-2.742,1.6l-45.671,13.811
						c-1.572,0.475-2.882,1.463-3.667,2.765l-22.478,37.283c-2.157,3.578,0.348,7.979,4.868,8.551l51.361,6.506
						c3.121,0.395,5.488,2.708,5.64,5.509l6.481,119.556c0.101,1.869-0.809,3.667-2.448,4.836l-48.506,34.594
						c-2.241,1.598-3.052,4.308-2.002,6.69l11.089,25.152c1.618,3.669-1.223,7.678-5.639,7.957l-13.199,0.833
						c-2.217,0.14-4.365-0.729-5.707-2.308l-37.531-44.181c-3.26-3.838-10.039-2.728-11.541,1.889l-3.996,12.28
						c-0.466,1.431-0.299,2.967,0.466,4.293l36.593,63.473c1.289,2.236,0.829,4.952-1.142,6.748l-65.028,59.239
						c-3.136,2.857-7.784,3.949-12.101,2.844l-11.448-2.932c-6.352-1.627-13,1.538-14.999,7.141l0,0
						c-1.18,3.306-0.514,6.917,1.793,9.718l33.171,40.263c3.636,4.413,3.022,10.54-1.434,14.303l-18.4,15.539
						c-4.782,4.039-12.309,3.962-16.998-0.173l-102.186-90.132c-4.774-4.21-12.468-4.202-17.219,0.019l-55.072,48.928
						c-1.626,1.445-2.76,3.269-3.272,5.263l-4.582,17.858c-2.303,8.98-15.335,11.48-21.611,4.147l-85.789-100.245
						c-2.316-2.706-5.726-4.502-9.503-5.008l-59.332-7.932c-1.707-0.229-3.355-0.723-4.87-1.461l-24.465-11.919
						c-6.815-3.321-14.458,2.963-11.278,9.271l5.544,10.998c2.031,4.029,6.211,6.874,11.11,7.563l41.322,5.81
						c5.237,0.736,9.623,3.928,11.473,8.351l2.022,4.832c2.419,5.779-0.033,12.271-5.879,15.571l-91.604,51.698
						c-4.113,2.322-9.585,0.908-11.67-3.014l-54.75-102.984c-1.787-3.361-6.15-4.967-10.078-3.708l0,0
						c-4.502,1.443-6.621,6.027-4.565,9.876l46.557,87.18c7.87,14.738,26.307,22.517,44.093,18.605l7.742-1.702
						c11.21-2.466,21.09,7.035,17.461,16.79l-11.76,31.612c-0.894,2.404-2.555,4.523-4.78,6.1l-42.089,29.831
						c-9.741,6.905-15.126,17.579-14.453,28.653l2.122,34.939c0.632,10.397-4.077,20.482-12.8,27.412l-16.933,13.452
						c-7.319,5.815-11.034,14.418-9.975,23.105l0.862,7.076c1.047,8.593-2.576,17.11-9.752,22.926l-64.275,52.092
						c-7.292,5.91-17.354,8.303-26.995,6.422l-12.465-2.432c-10.505-2.05-19.021-8.879-22.405-17.966l-35.427-95.139
						c-3.828-10.279-0.415-21.592,8.68-28.77l0,0c8.98-7.088,12.431-18.218,8.81-28.413l-19.599-55.176
						c-6.839-19.254-29.095-30.664-51.226-26.26l-50.667,10.082c-4.174,0.831-8.545-0.186-11.734-2.728l-71.379-56.914
						c-2.823-2.251-4.429-5.469-4.412-8.84l0.333-66.232c0.09-17.829,7.285-35.045,20.305-48.582l8.78-9.128
						c16.294-16.942,39.242-27.708,64.167-30.104l51.343-4.936l34.647-3.812c6.838-0.752,13.187,3.289,14.601,9.292l2.376,10.09
						c0.844,3.583,3.51,6.616,7.216,8.208l49.621,21.317l6.18-20.262l90.706,9.478l1.466-23.34c0.224-3.569-2.523-6.749-6.458-7.474
						l-38.757-7.14l-16.297-31.521l-29.423-6.362l13.031,38.529L1911.79,2035l-32.233-29.644c-4.618-4.247-12.051-4.8-17.387-1.293
						l0,0c-6.398,4.205-7.206,12.452-1.724,17.592l29.94,28.071l-17.689-0.039c-3.235-0.007-6.358-1.068-8.777-2.983l-35.042-27.735
						c-5.423-4.292-13.711-3.907-18.591,0.863l-28.939,28.289c-1.973,1.928-4.61,3.219-7.498,3.669l-23.145,3.607
						c-7.154,1.115-13.99-3.109-15.318-9.468l-4.851-23.217c-1.595-7.633,5.391-14.521,14.085-13.887l16.755,1.221
						c9.529,0.695,16.709-7.549,13.579-15.591l-7.668-19.704c-1.965-5.051,0.131-10.642,5.108-13.624l58.03-34.774l87.59-5.891
						l17.005-50.364l-22.389-7.272l8.144-44.705l-16.83,1.565l-20.759,37.451l1.394,41.467l-25.851,8.589l-13.65-31.675
						l-21.641,12.306l-11.37-41.214c-0.104-0.378-0.016-0.776,0.239-1.09l86.735-106.678l114.693,30.817l1.204,18.22l-29.749,11.86
						l-1.801,28.08l48.598-34.549l69.179-33.669l1.543-22.177l31.181-0.02c1.261,0,2.497,0.322,3.558,0.929l11.612,6.643
						c5.233,2.994,11.768-1.557,9.758-6.796l-12.936-33.716c-0.681-1.774-0.365-3.728,0.849-5.257l11.269-14.196
						c1.375-1.732,3.698-2.664,6.068-2.433l28.411,2.759c1.209,0.117,2.357,0.531,3.318,1.195l3.562,2.461
						c5.406,3.736,12.817-1.452,10.009-7.006l0,0c-1.729-3.421,0.556-7.382,4.685-8.121l13.27-2.375
						c5.631-1.007,7.187-7.513,2.507-10.484l-6.898-4.379c-3.438-2.183-3.706-6.641-0.549-9.131l33.555-26.458
						c0.596-0.47,1.282-0.839,2.026-1.09l28.082-9.46c3.657-1.232,5.296-5.02,3.513-8.121l-2.631-4.576
						c-1.405-2.443-4.53-3.69-7.512-2.996l-26.27,6.115c-4.312,1.004-8.475-2.028-8.223-5.989l0.579-9.118
						C2245.701,1582.703,2248.595,1580.282,2252.088,1580.3z"/>
					<path style="fill-rule:evenodd;clip-rule:evenodd;fill:#FFFFFF;" d="M2719.36,2377.058l-60.941,19.728
						c-2.719,0.88-4.997,2.592-6.428,4.83l-17.936,28.055c-1.609,2.518-4.283,4.357-7.426,5.11l-54.672,13.098
						c-5.879,1.409-9.688,6.46-8.926,11.838l9.985,70.521c0.284,2.004-0.066,4.038-1.009,5.875l-8.14,15.837
						c-3.246,6.317,0.917,13.692,8.553,15.152l9.989,1.909c2.485,0.475,5.074,0.248,7.405-0.649l88.237-33.943
						c5.463-2.102,11.838-0.387,15.087,4.058l20.387,27.898c0.589,0.806,1.296,1.54,2.101,2.18l31.778,25.283
						c2.625,2.089,6.135,3.069,9.628,2.688l51.402-5.598c5.961-0.65,10.501-5.063,10.704-10.405l0.839-22.09
						c0.08-2.124,0.86-4.181,2.241-5.914l31.703-39.772c1.452-1.822,2.237-3.997,2.248-6.232l0.154-30.731
						c0.015-2.932-1.303-5.746-3.653-7.803l-42.417-37.126c-1.481-1.297-2.567-2.907-3.154-4.68l-7.779-23.474
						c-3.419-10.319-19.798-10.434-23.372-0.163l-2.818,8.1c-2.511,7.216-12.331,9.995-19.076,5.399l-9.64-6.568
						c-4.639-3.16-6.118-8.8-3.528-13.454l0.124-0.222c2.767-4.975,0.871-11.011-4.397-13.994l-6.523-3.694
						C2726.888,2376.291,2722.923,2375.904,2719.36,2377.058z"/>
					<path style="fill-rule:evenodd;clip-rule:evenodd;fill:#FFFFFF;" d="M2704.195,2308.286l-1.341,3.933
						c-1.451,4.256,0.16,8.872,4.068,11.651l34.973,24.872c1.517,1.078,3.3,1.82,5.202,2.163l66.273,11.959
						c0.67,0.121,1.327,0.292,1.965,0.51l8.639,2.963c10.812,3.707,20.789-6.808,14.874-15.676l-3.467-5.198
						c-1.36-2.04-3.432-3.627-5.899-4.523l-109.008-39.549C2713.82,2298.978,2706.281,2302.171,2704.195,2308.286z"/>
					<path style="fill-rule:evenodd;clip-rule:evenodd;fill:#FFFFFF;" d="M2596.822,2264.714
						c-8.684,8.595-20.388,20.106-26.994,26.597c-3.119,3.064-4.008,7.441-2.296,11.289l14.483,32.545
						c2.252,5.061,8.361,7.863,14.295,6.557l22.32-4.914c4.171-0.918,7.49-3.721,8.738-7.38l8.894-26.071
						c0.994-2.913,0.58-6.047-1.162-8.67c-4.19-6.31-12.397-18.671-18.714-28.183
						C2612.187,2260.164,2602.333,2259.26,2596.822,2264.714z"/>
					<path style="fill-rule:evenodd;clip-rule:evenodd;fill:#FFFFFF;" d="M2483.896,2269.002l50.51,57.068
						c0.157,0.177,0.32,0.35,0.488,0.517l31.114,30.984c2.102,2.094,5.032,3.383,8.177,3.598l59.838,4.094l-0.361,1.005
						c-1.556,4.325-5.973,7.329-11.072,7.531l-83.627,3.3c-4.308,0.17-8.4-1.696-10.765-4.909l-65.675-89.231
						c-3.27-4.443-2.457-10.335,1.925-13.934l1.576-1.295C2471.252,2263.436,2479.488,2264.022,2483.896,2269.002z"/>
					<path style="fill-rule:evenodd;clip-rule:evenodd;fill:#FFFFFF;" d="M1269.625,2214.213l-15.189,19.61
						c-2.104,2.716-5.856,4.016-9.473,3.281l-28.39-5.77c-4.142-0.842-7.075-4.13-7.056-7.91l0.091-18.055
						c0.022-4.326-3.794-7.901-8.65-8.103l-16.407-0.685c-6.673-0.279-10.735-6.665-7.564-11.895l17.737-29.258l-27.575-8.216
						c0,0-20.907,29.955-25.066,30.08c-4.16,0.125-31.384-37.984-31.384-37.984l34.434-38.708l52.881-1.137l25.171,32.63
						l16.023-52.544l59.046-39.53l116.63-72.898c0.843-0.527,1.516-1.242,1.951-2.073l21.831-41.744
						c0.967-1.849,0.639-4.032-0.841-5.592l-34.403-36.266c-0.781-0.823-1.259-1.84-1.367-2.913l-1.991-19.673
						c-0.521-5.145-8.206-6.594-11.015-2.077l0,0c-2.039,3.279-7.177,3.642-9.78,0.692l-23.207-26.304
						c-5.034-5.706-14.688-5.846-19.913-0.289l-29.668,31.549c-0.835,0.888-1.513,1.885-2.011,2.955l-13,27.955
						c-4.262,9.165-18.735,9.441-23.458,0.448l-0.686-1.306c-1.254-2.387-3.366-4.3-6.033-5.444
						c-12.722-5.456-50.826-22.368-51.027-29.264c-0.209-7.149,25.638-46.526,32.692-57.134c1.155-1.737,2.795-3.146,4.777-4.127
						l49.602-24.544c0.206-0.102,0.415-0.199,0.626-0.29l46.899-20.279c4.625-2,7.457-6.27,7.188-10.843l-0.653-11.149
						c-0.413-7.055-7.858-12.091-15.604-10.555l-22.521,4.465c-2.196,0.436-4.223,1.378-5.878,2.732l-10.062,8.229
						c-6.175,5.051-16.055,3.541-19.997-3.057l-14.006-23.438c-3.608-6.038-12.327-7.923-18.633-4.028l-19.131,11.814
						c-3.213,1.984-7.271,2.552-11.017,1.543l-64.695-17.43c-1.303-0.351-2.536-0.885-3.651-1.58l-55.385-34.564
						c-3.074-1.919-6.938-2.543-10.571-1.708l-43.62,10.029c-4.134,0.95-8.53,0.005-11.725-2.52l-75.02-59.285
						c-3.218-2.543-7.615-3.491-11.771-2.508c-14.101,3.335-46.988,10.929-60.634,12.51c-13.776,1.597-28.756,17.91-34.62,24.93
						c-1.599,1.914-1.8,4.45-0.542,6.559l6.336,10.622c2.231,3.74-0.333,8.319-5.029,8.982l-23.419,3.303
						c-4.848,0.684-7.377,5.513-4.851,9.262l5.489,8.144c0.875,1.299,1.184,2.839,0.867,4.327l-4.336,20.327
						c-0.738,3.461-4.579,5.666-8.429,4.839l-22.413-4.813c-4.514-0.97-8.798,2.206-8.541,6.332l1.961,31.434
						c0.078,1.25,0.581,2.45,1.443,3.44l18.636,21.408c2.539,2.916,1.677,7.138-1.867,9.045
						c-18.362,9.883-68.209,36.672-63.296,33.572c6.01-3.792,60.673,1.016,61.162-7.373c0.489-8.389,36.809-16.297,39.337-19.198
						c1.899-2.179,15.654-19.877,22.379-28.548c2.075-2.674,6.124-3.452,9.26-1.781l55.193,29.402
						c3.529,1.879,5.832,5.15,6.195,8.795l5.984,60.174c0.168,1.688,0.755,3.321,1.721,4.782l23.556,35.65l27.102,45.171
						c1.693,2.822,1.978,6.144,0.788,9.159l-14.944,37.839c-11.257,28.503-8.769,59.887,6.86,86.735
						c12.722,21.854,25.779,44.473,26.523,46.519c0.246,0.674,1.034,1.907,2.178,3.493c11.122,15.425,27.016,27.666,45.463,35.809
						l85.685,37.825c0.375,0.166,0.737,0.354,1.083,0.564l63.056,38.294c0.605,0.368,1.158,0.799,1.647,1.284l10.552,10.489
						c2.071,2.058,5.18,3.032,8.24,2.581l0,0c7.113-1.048,12.695,5.358,9.782,11.225l-16.754,33.755
						c-0.684,1.377-0.92,2.898-0.682,4.39l10.516,65.99c0.287,1.798,1.246,3.458,2.724,4.712l44.915,38.104
						c1.331,1.129,2.245,2.592,2.622,4.193l15.575,66.266c0.091,0.388,0.15,0.781,0.176,1.177l12.121,182.645
						c0.159,2.397,1.51,4.609,3.686,6.032l41.742,27.302c1.725,1.129,3.842,1.677,5.977,1.551l14.478-0.861
						c7.788-0.463,11.309-8.889,5.757-13.779l-13.978-12.313c-1.597-1.407-2.551-3.29-2.677-5.286l-1.094-17.305
						c-0.011-0.163-0.015-0.327-0.014-0.489l0.16-31.779c0.003-0.496,0.057-0.991,0.161-1.478l5.227-24.345
						c0.032-0.15,0.06-0.301,0.082-0.453l2.54-17.036c0.42-2.82,2.479-5.233,5.418-6.349l35.757-13.586
						c4.632-1.76,6.757-6.547,4.731-10.654l-4.62-9.367c-2.256-4.574,0.649-9.85,6.09-11.061l14.019-3.121
						c2.261-0.503,4.216-1.762,5.459-3.516l29.082-41.031c1.95-2.751,1.85-6.277-0.253-8.941l-0.6-0.76
						c-3.764-4.768-0.788-11.401,5.628-12.542l16.207-2.882c3.246-0.577,5.878-2.685,6.866-5.496l23.758-67.666
						c0.371-1.057,0.984-2.035,1.798-2.872l33.708-34.622c3.508-3.604,2.752-9.119-1.629-11.873l-46.197-29.045
						c-1.64-1.031-3.618-1.549-5.623-1.472l-33.203,1.265c-2.174,0.083-4.31-0.533-6.017-1.735l-19.924-14.027
						c-2.117-1.49-3.379-3.742-3.443-6.142l-0.58-21.793c-0.093-3.48-2.683-6.518-6.426-7.534l-40.56-11.013
						c-1.101-0.299-2.128-0.781-3.026-1.422l-25.228-17.986c-2.561-1.826-6.03-2.279-9.07-1.185l-20.48,7.375
						c-2.474,0.891-5.265,0.765-7.628-0.344l-39.628-18.594C1277.247,2209.756,1272.229,2210.851,1269.625,2214.213z"/>
					<path style="fill-rule:evenodd;clip-rule:evenodd;fill:#FFFFFF;" d="M1307.737,1688.053l5.291-22.766
						c1.071-4.609,5.213-8.155,10.429-8.93l37.258-5.534c2.914-0.433,5.908,0.044,8.475,1.349l45.911,23.353
						c3.089,1.571,3.922,5.2,1.773,7.719l-18.374,21.537c-1.531,1.794-1.6,4.259-0.171,6.121l26.155,34.109
						c0.796,1.037,1.147,2.294,0.989,3.542l-4.966,39.278c-0.097,0.77-0.386,1.512-0.844,2.17l-14.555,20.915
						c-1.337,1.922-3.91,2.861-6.381,2.33l-39.718-8.532c-0.639-0.137-1.266-0.318-1.875-0.542l-3.576-1.31
						c-10.241-3.753-10.695-16.511-0.741-20.813l7.434-3.213c4.96-2.143,7.823-6.846,7.104-11.714
						c-1.47-9.955-4.153-26.021-6.726-30.504c-2.258-3.936-3.686-13.313-4.474-20.292c-0.568-5.038-4.794-9.124-10.386-10.063
						l-27.844-4.678C1310.877,1700.403,1306.284,1694.302,1307.737,1688.053z"/>
					<path style="fill-rule:evenodd;clip-rule:evenodd;fill:#FFFFFF;" d="M1147.835,1615.21l-17.099,12.512
						c-5.327,3.898-6.226,10.852-2.036,15.734l16.331,19.028c0.29,0.338,0.559,0.691,0.805,1.056l21.306,31.593
						c1.465,2.172,3.699,3.849,6.35,4.768l20.075,6.957c4.387,1.52,9.355,0.78,12.941-1.929l14.003-10.577
						c1.269-0.959,2.316-2.128,3.082-3.443l16.306-28.004c0.942-1.617,1.434-3.411,1.436-5.233l0,0
						c0.013-10.159-13.778-15.28-21.866-8.118l-0.87,0.771c-5.159,4.568-13.557,4.395-18.484-0.381l-34.694-33.627
						C1160.814,1611.85,1153.092,1611.364,1147.835,1615.21z"/>
					<path style="fill-rule:evenodd;clip-rule:evenodd;fill:#FFFFFF;" d="M1498.324,1563.058l-61.956,44.403
						c-1.913,1.37-2.666,3.656-1.89,5.731l11.624,31.085c0.607,1.621,2.062,2.879,3.902,3.369l34.665,9.244
						c2.83,0.755,4.883,2.938,5.217,5.55l8.888,69.36c0.136,1.061-0.021,2.135-0.457,3.129l-21.049,47.981
						c-0.568,1.294-0.659,2.714-0.261,4.057l17.242,58.26c0.56,1.892,2.039,3.465,4.034,4.288l14.249,5.881
						c3.508,1.448,7.673,0.24,9.546-2.767l28.608-45.95c0.709-1.139,1.783-2.063,3.086-2.657l47.115-21.459
						c0.591-0.269,1.139-0.608,1.627-1.008l69.161-56.564c1.099-0.898,1.864-2.073,2.196-3.367l24.649-96.171
						c0.254-0.99,0.762-1.914,1.486-2.699l38.15-41.396c1.65-1.79,2.116-4.222,1.226-6.4l-4.353-10.663
						c-1.437-3.52-5.887-5.262-9.77-3.824l-21.287,7.884c-1.307,0.484-2.743,0.623-4.137,0.399l-13.106-2.1
						c-7.83-1.254-8.2-11.128-0.481-12.828l0,0c5.729-1.261,7.544-7.706,3.164-11.233l-4.686-3.774
						c-0.421-0.339-0.796-0.719-1.119-1.134l-16.742-21.534c-1.371-1.763-3.621-2.82-6.029-2.833l-47.439-0.238
						c-1.964-0.01-3.85,0.678-5.24,1.911l-26.793,23.759c-1.722,1.527-2.486,3.712-2.042,5.841l2.649,12.704
						c1.061,5.09-4.606,9.212-10.001,7.275l-15.038-5.4c-1.693-0.608-3.074-1.753-3.875-3.214l-4.362-7.96
						c-1.796-3.278-6.248-4.628-9.914-3.006l-39.118,17.302C1499.189,1562.505,1498.739,1562.761,1498.324,1563.058z"/>
					<path style="fill-rule:evenodd;clip-rule:evenodd;fill:#FFFFFF;" d="M1385.674,1519.897l74.749-17.427
						c0.946-0.22,1.939-0.227,2.889-0.021l66.572,14.474c6.147,1.337,7.682,8.488,2.518,11.735l-9.844,6.19
						c-0.12,0.075-0.236,0.154-0.351,0.235l-90.963,64.763l-40.678,29.438c-2.912,2.108-6.717,2.971-10.411,2.364l-40.163-6.608
						c-4.075-0.671-8.26,0.452-11.236,3.015l-12.488,10.754c-6.214,5.351-16.486,3.793-20.373-3.091l-5.469-9.685
						c-0.225-0.4-0.424-0.811-0.596-1.231l-4.205-10.308c-2.424-5.944,1.042-12.504,7.728-14.627l24.511-7.785
						c3.092-0.982,6.491-0.87,9.495,0.313l18.521,7.291c3.229,1.271,6.903,1.302,10.155,0.085l0.421-0.158
						c7.944-2.973,10.384-11.94,4.85-17.83l-4.76-5.066c-3.326-3.54-3.933-8.512-1.536-12.599l22.557-38.473
						C1379.239,1522.799,1382.182,1520.711,1385.674,1519.897z"/>
					<path style="fill-rule:evenodd;clip-rule:evenodd;fill:#FFFFFF;" d="M1203.753,1566.989l27.217-6.368
						c7.439-1.74,14.921,2.704,15.972,9.489l3.895,25.145c0.793,5.12-2.379,10.071-7.733,12.068l-23.069,8.603
						c-7.193,2.682-15.394-0.93-17.368-7.65l-8.043-27.379C1192.836,1574.809,1196.919,1568.587,1203.753,1566.989z"/>
				</g>
			</g>
		</g>
		
			<linearGradient id="SVGID_00000098899953904512304610000003500980910500572849_" gradientUnits="userSpaceOnUse" x1="1115.8754" y1="1407.0118" x2="1139.3605" y2="1407.0118">
			<stop  offset="0" style="stop-color:#4F52FF"/>
			<stop  offset="1" style="stop-color:#4042E2"/>
		</linearGradient>
		<path style="fill:url(#SVGID_00000098899953904512304610000003500980910500572849_);" d="M1129.295,1940.458
			c-5.544,0-10.045-4.485-10.065-10.032l-0.098-30.195c-0.02-5.56,4.472-10.078,10.032-10.098c0.01,0,0.023,0,0.023,0
			c5.554,0,10.055,4.485,10.075,10.032l0.098,30.195c0.016,5.56-4.472,10.078-10.032,10.098
			C1129.328,1940.458,1129.305,1940.458,1129.295,1940.458z M1129.102,1880.068c-5.544,0-10.045-4.485-10.065-10.032l-0.098-30.195
			c-0.016-5.56,4.472-10.078,10.032-10.098c0,0,0.023,0,0.033,0c5.544,0,10.045,4.485,10.065,10.032l0.098,30.195
			c0.02,5.56-4.472,10.078-10.032,10.098C1129.125,1880.068,1129.112,1880.068,1129.102,1880.068z M1128.909,1819.677
			c-5.544,0-10.045-4.485-10.065-10.032l-0.098-30.195c-0.02-5.56,4.472-10.078,10.032-10.098h0.033
			c5.544,0,10.045,4.485,10.065,10.032l0.098,30.195c0.016,5.56-4.472,10.078-10.032,10.098
			C1128.932,1819.677,1128.919,1819.677,1128.909,1819.677z M1128.715,1759.287c-5.544,0-10.045-4.485-10.065-10.032l-0.098-30.195
			c-0.02-5.56,4.472-10.078,10.032-10.098h0.033c5.544,0,10.045,4.485,10.065,10.032l0.098,30.195
			c0.02,5.56-4.472,10.078-10.032,10.098H1128.715z M1128.522,1698.897c-5.544,0-10.045-4.485-10.065-10.032l-0.098-30.195
			c-0.016-5.56,4.472-10.078,10.032-10.098c0.01,0,0.023,0,0.023,0c5.553,0,10.055,4.485,10.075,10.032l0.098,30.195
			c0.02,5.56-4.472,10.078-10.032,10.098C1128.555,1698.897,1128.532,1698.897,1128.522,1698.897z M1128.329,1638.507
			c-5.544,0-10.045-4.485-10.065-10.032l-0.098-30.192c-0.02-5.56,4.472-10.078,10.032-10.098c0,0,0.023,0,0.033,0
			c5.544,0,10.045,4.485,10.065,10.032l0.098,30.192c0.016,5.56-4.472,10.078-10.032,10.098H1128.329z M1128.136,1578.12
			c-5.544,0-10.045-4.485-10.065-10.032l-0.098-30.195c-0.016-5.56,4.472-10.078,10.032-10.098h0.033
			c5.544,0,10.045,4.485,10.065,10.032l0.098,30.195c0.02,5.56-4.472,10.078-10.032,10.098
			C1128.158,1578.12,1128.145,1578.12,1128.136,1578.12z M1127.939,1517.73c-5.544,0-10.049-4.485-10.065-10.032l-0.095-30.195
			c-0.016-5.56,4.475-10.081,10.032-10.098h0.033c5.544,0,10.049,4.485,10.065,10.032l0.095,30.195
			c0.016,5.56-4.476,10.081-10.032,10.098C1127.959,1517.73,1127.949,1517.73,1127.939,1517.73z M1127.746,1457.34
			c-5.544,0-10.049-4.485-10.065-10.032l-0.095-30.195c-0.016-5.56,4.475-10.081,10.032-10.098c0.013,0,0.023,0,0.023,0
			c5.553,0,10.058,4.485,10.075,10.032l0.095,30.195c0.016,5.56-4.475,10.081-10.032,10.098H1127.746z M1127.552,1396.95
			c-5.544,0-10.049-4.485-10.065-10.032l-0.095-30.195c-0.016-5.56,4.475-10.081,10.032-10.098c0,0,0.023,0,0.033,0
			c5.544,0,10.049,4.485,10.065,10.032l0.095,30.195c0.016,5.56-4.476,10.081-10.032,10.098
			C1127.585,1396.95,1127.562,1396.95,1127.552,1396.95z M1127.359,1336.56c-5.544,0-10.049-4.485-10.065-10.032l-0.095-30.195
			c-0.016-5.56,4.475-10.081,10.032-10.098c0,0,0.023,0,0.033,0c5.544,0,10.049,4.485,10.065,10.032l0.095,30.195
			c0.016,5.56-4.475,10.081-10.032,10.098C1127.379,1336.56,1127.369,1336.56,1127.359,1336.56z M1127.166,1276.17
			c-5.544,0-10.049-4.485-10.065-10.032l-0.095-30.195c-0.016-5.56,4.475-10.081,10.032-10.098h0.033
			c5.544,0,10.049,4.485,10.065,10.032l0.095,30.195c0.016,5.56-4.476,10.081-10.032,10.098
			C1127.185,1276.17,1127.176,1276.17,1127.166,1276.17z M1126.973,1215.78c-5.544,0-10.049-4.485-10.065-10.032l-0.095-30.195
			c-0.016-5.56,4.476-10.081,10.032-10.098c0.013,0,0.023,0,0.023,0c5.554,0,10.059,4.485,10.075,10.032l0.095,30.195
			c0.016,5.56-4.475,10.081-10.032,10.098H1126.973z M1126.779,1155.39c-5.544,0-10.045-4.485-10.065-10.032l-0.098-30.195
			c-0.02-5.56,4.472-10.078,10.032-10.098c0.01,0,0.023,0,0.023,0c5.553,0,10.055,4.485,10.075,10.032l0.098,30.195
			c0.016,5.56-4.472,10.078-10.032,10.098C1126.812,1155.39,1126.789,1155.39,1126.779,1155.39z M1126.586,1095
			c-5.544,0-10.045-4.485-10.065-10.032l-0.098-30.195c-0.016-5.56,4.472-10.078,10.032-10.098c0,0,0.023,0,0.033,0
			c5.544,0,10.045,4.485,10.065,10.032l0.098,30.195c0.02,5.56-4.472,10.078-10.032,10.098
			C1126.609,1095,1126.596,1095,1126.586,1095z M1126.393,1034.609c-5.544,0-10.045-4.485-10.065-10.032l-0.098-30.195
			c-0.02-5.56,4.472-10.078,10.032-10.098h0.033c5.544,0,10.045,4.485,10.065,10.032l0.098,30.195
			c0.016,5.56-4.472,10.078-10.032,10.098C1126.416,1034.609,1126.402,1034.609,1126.393,1034.609z M1126.199,974.219
			c-5.544,0-10.045-4.485-10.065-10.032l-0.098-30.195c-0.02-5.56,4.472-10.078,10.032-10.098h0.033
			c5.544,0,10.045,4.485,10.065,10.032l0.098,30.195c0.02,5.56-4.472,10.078-10.032,10.098H1126.199z M1126.006,913.832
			c-5.544,0-10.045-4.485-10.065-10.032l-0.066-20.137c-0.016-5.56,4.472-10.078,10.032-10.098c0.01,0,0.023,0,0.023,0
			c5.553,0,10.055,4.485,10.075,10.032l0.066,20.137c0.02,5.56-4.472,10.078-10.032,10.098
			C1126.039,913.832,1126.016,913.832,1126.006,913.832z"/>
		
			<linearGradient id="SVGID_00000067213339716827895550000012869710918941646223_" gradientUnits="userSpaceOnUse" x1="1837.5317" y1="1640.2396" x2="1874.1078" y2="1640.2396">
			<stop  offset="0" style="stop-color:#4F52FF"/>
			<stop  offset="1" style="stop-color:#4042E2"/>
		</linearGradient>
		<path style="fill:url(#SVGID_00000067213339716827895550000012869710918941646223_);" d="M1864.038,2239.053
			c-5.495,0-9.983-4.413-10.062-9.924l-0.423-30.192c-0.075-5.557,4.367-10.127,9.924-10.206c0.049,0,0.095,0,0.144,0
			c5.491,0,9.983,4.413,10.062,9.924l0.423,30.192c0.075,5.557-4.367,10.127-9.924,10.206
			C1864.134,2239.053,1864.088,2239.053,1864.038,2239.053z M1863.197,2178.67c-5.495,0-9.983-4.413-10.062-9.924l-0.423-30.192
			c-0.075-5.557,4.367-10.127,9.924-10.206c5.593-0.088,10.127,4.364,10.206,9.924l0.423,30.192
			c0.075,5.557-4.367,10.127-9.924,10.206C1863.292,2178.67,1863.246,2178.67,1863.197,2178.67z M1862.351,2118.286
			c-5.495,0-9.983-4.413-10.062-9.924l-0.423-30.195c-0.075-5.557,4.367-10.127,9.924-10.206c0.049,0,0.095,0,0.144,0
			c5.491,0,9.983,4.413,10.062,9.924l0.423,30.195c0.075,5.557-4.367,10.127-9.924,10.206
			C1862.446,2118.286,1862.4,2118.286,1862.351,2118.286z M1861.509,2057.899c-5.495,0-9.983-4.413-10.062-9.924l-0.423-30.192
			c-0.075-5.557,4.367-10.127,9.924-10.206c0.049,0,0.095,0,0.144,0c5.494,0,9.983,4.413,10.062,9.924l0.423,30.192
			c0.075,5.557-4.367,10.127-9.924,10.206C1861.604,2057.899,1861.558,2057.899,1861.509,2057.899z M1860.664,1997.516
			c-5.495,0-9.983-4.413-10.062-9.924l-0.419-30.192c-0.075-5.56,4.367-10.127,9.924-10.206c0.049,0,0.095,0,0.144,0
			c5.495,0,9.983,4.413,10.062,9.924l0.419,30.192c0.075,5.56-4.367,10.127-9.924,10.206
			C1860.759,1997.516,1860.713,1997.516,1860.664,1997.516z M1859.822,1937.132c-5.491,0-9.983-4.413-10.062-9.924l-0.423-30.192
			c-0.075-5.557,4.367-10.127,9.924-10.206c5.462,0.036,10.127,4.364,10.206,9.924l0.423,30.192
			c0.075,5.557-4.367,10.127-9.924,10.206C1859.917,1937.132,1859.871,1937.132,1859.822,1937.132z M1858.98,1876.749
			c-5.495,0-9.983-4.413-10.062-9.924l-0.423-30.192c-0.075-5.557,4.367-10.127,9.924-10.206c5.563-0.19,10.124,4.364,10.206,9.924
			l0.423,30.192c0.075,5.557-4.367,10.127-9.924,10.206C1859.075,1876.749,1859.029,1876.749,1858.98,1876.749z M1858.135,1816.365
			c-5.495,0-9.983-4.413-10.062-9.924l-0.423-30.195c-0.075-5.557,4.367-10.127,9.924-10.206c5.671-0.046,10.127,4.364,10.206,9.924
			l0.423,30.195c0.075,5.557-4.367,10.127-9.924,10.206C1858.229,1816.365,1858.184,1816.365,1858.135,1816.365z M1857.292,1755.978
			c-5.491,0-9.983-4.413-10.062-9.924l-0.423-30.192c-0.075-5.557,4.367-10.127,9.924-10.206c0.049,0,0.095,0,0.144,0
			c5.495,0,9.983,4.413,10.062,9.924l0.423,30.192c0.075,5.557-4.367,10.127-9.924,10.206
			C1857.387,1755.978,1857.342,1755.978,1857.292,1755.978z M1856.447,1695.595c-5.494,0-9.983-4.413-10.062-9.924l-0.419-30.192
			c-0.075-5.56,4.367-10.127,9.924-10.206c5.508-0.128,10.124,4.364,10.206,9.924l0.419,30.192
			c0.075,5.56-4.367,10.127-9.924,10.206C1856.542,1695.595,1856.496,1695.595,1856.447,1695.595z M1855.605,1635.211
			c-5.491,0-9.983-4.413-10.062-9.924l-0.423-30.192c-0.075-5.557,4.367-10.127,9.924-10.206c0.049,0,0.095,0,0.144,0
			c5.491,0,9.983,4.413,10.062,9.924l0.422,30.192c0.075,5.557-4.367,10.127-9.924,10.206
			C1855.7,1635.211,1855.654,1635.211,1855.605,1635.211z M1854.763,1574.828c-5.495,0-9.983-4.413-10.062-9.924l-0.423-30.192
			c-0.075-5.557,4.367-10.127,9.924-10.206c0.049,0,0.095,0,0.144,0c5.495,0,9.983,4.413,10.062,9.924l0.423,30.192
			c0.075,5.557-4.367,10.127-9.924,10.206C1854.858,1574.828,1854.812,1574.828,1854.763,1574.828z M1853.918,1514.444
			c-5.495,0-9.983-4.413-10.062-9.924l-0.423-30.192c-0.075-5.557,4.367-10.127,9.924-10.206c5.452-0.069,10.127,4.364,10.206,9.924
			l0.423,30.192c0.075,5.557-4.367,10.127-9.924,10.206C1854.013,1514.444,1853.967,1514.444,1853.918,1514.444z M1853.076,1454.057
			c-5.495,0-9.983-4.413-10.062-9.924l-0.423-30.192c-0.075-5.557,4.367-10.127,9.924-10.206c0.049,0,0.095,0,0.144,0
			c5.491,0,9.983,4.413,10.062,9.924l0.423,30.192c0.075,5.557-4.367,10.127-9.924,10.206
			C1853.171,1454.057,1853.125,1454.057,1853.076,1454.057z M1852.23,1393.674c-5.495,0-9.983-4.413-10.062-9.924l-0.419-30.192
			c-0.075-5.56,4.367-10.127,9.924-10.206c5.658-0.151,10.127,4.364,10.206,9.924l0.419,30.192
			c0.075,5.56-4.367,10.127-9.924,10.206C1852.325,1393.674,1852.28,1393.674,1852.23,1393.674z M1851.389,1333.29
			c-5.495,0-9.983-4.413-10.062-9.924l-0.423-30.192c-0.075-5.557,4.367-10.127,9.924-10.206c0.049,0,0.095,0,0.144,0
			c5.494,0,9.983,4.413,10.062,9.924l0.423,30.192c0.075,5.557-4.367,10.127-9.924,10.206
			C1851.484,1333.29,1851.438,1333.29,1851.389,1333.29z M1850.546,1272.906c-5.491,0-9.983-4.413-10.062-9.924l-0.423-30.192
			c-0.075-5.557,4.367-10.127,9.924-10.206c0.049,0,0.095,0,0.144,0c5.495,0,9.983,4.413,10.062,9.924l0.423,30.192
			c0.075,5.557-4.367,10.127-9.924,10.206C1850.641,1272.906,1850.596,1272.906,1850.546,1272.906z M1849.701,1212.523
			c-5.491,0-9.983-4.413-10.062-9.924l-0.423-30.192c-0.075-5.557,4.367-10.127,9.924-10.206c5.603-0.092,10.127,4.364,10.206,9.924
			l0.423,30.192c0.075,5.557-4.367,10.127-9.924,10.206C1849.796,1212.523,1849.75,1212.523,1849.701,1212.523z M1848.859,1152.139
			c-5.491,0-9.983-4.413-10.062-9.924l-0.422-30.195c-0.075-5.557,4.367-10.127,9.924-10.206c5.524,0.003,10.124,4.364,10.206,9.924
			l0.423,30.195c0.075,5.557-4.367,10.127-9.924,10.206C1848.954,1152.139,1848.908,1152.139,1848.859,1152.139z M1848.014,1091.753
			c-5.495,0-9.983-4.413-10.062-9.924l-0.419-30.192c-0.075-5.56,4.367-10.127,9.924-10.206c5.439-0.174,10.127,4.364,10.206,9.924
			l0.419,30.192c0.075,5.56-4.367,10.127-9.924,10.206C1848.109,1091.753,1848.063,1091.753,1848.014,1091.753z"/>
		
			<linearGradient id="SVGID_00000142144557215939228490000012374649533055290284_" gradientUnits="userSpaceOnUse" x1="2632.3381" y1="1673.738" x2="2655.7773" y2="1673.738">
			<stop  offset="0" style="stop-color:#4F52FF"/>
			<stop  offset="1" style="stop-color:#4042E2"/>
		</linearGradient>
		<path style="fill:url(#SVGID_00000142144557215939228490000012374649533055290284_);" d="M2642.403,2182.018c0,0-0.023,0-0.033,0
			c-5.56-0.02-10.052-4.541-10.032-10.098l0.102-30.195c0.02-5.547,4.521-10.032,10.065-10.032c0.01,0,0.023,0,0.023,0
			c5.57,0.02,10.062,4.541,10.042,10.098l-0.102,30.195C2652.448,2177.533,2647.947,2182.018,2642.403,2182.018z M2642.603,2121.628
			c0,0-0.023,0-0.033,0c-5.56-0.02-10.052-4.541-10.032-10.098l0.102-30.195c0.02-5.547,4.521-10.032,10.065-10.032
			c0.01,0,0.023,0,0.023,0c5.57,0.02,10.062,4.541,10.042,10.098l-0.102,30.195
			C2652.648,2117.143,2648.147,2121.628,2642.603,2121.628z M2642.803,2061.238c0,0-0.023,0-0.033,0
			c-5.56-0.02-10.052-4.541-10.032-10.098l0.102-30.195c0.02-5.547,4.521-10.032,10.065-10.032c0.01,0,0.023,0,0.023,0
			c5.57,0.02,10.062,4.541,10.042,10.098l-0.102,30.195C2652.848,2056.753,2648.347,2061.238,2642.803,2061.238z M2643.006,2000.848
			c0,0-0.023,0-0.033,0c-5.56-0.02-10.052-4.538-10.032-10.098l0.098-30.195c0.02-5.547,4.521-10.032,10.065-10.032
			c0.01,0,0.023,0,0.023,0c5.57,0.02,10.059,4.538,10.042,10.098l-0.098,30.195
			C2653.052,1996.363,2648.55,2000.848,2643.006,2000.848z M2643.206,1940.458c0,0-0.023,0-0.033,0
			c-5.56-0.02-10.052-4.541-10.032-10.098l0.101-30.195c0.02-5.547,4.521-10.032,10.065-10.032c0.01,0,0.023,0,0.023,0
			c5.57,0.02,10.062,4.541,10.042,10.098l-0.102,30.195C2653.251,1935.972,2648.75,1940.458,2643.206,1940.458z M2643.406,1880.071
			c0,0-0.023,0-0.033,0c-5.56-0.02-10.052-4.541-10.032-10.098l0.102-30.195c0.02-5.547,4.521-10.032,10.065-10.032
			c0.01,0,0.023,0,0.023,0c5.57,0.02,10.062,4.541,10.042,10.098l-0.102,30.195
			C2653.451,1875.586,2648.949,1880.071,2643.406,1880.071z M2643.606,1819.681h-0.033c-5.56-0.02-10.052-4.541-10.032-10.098
			l0.101-30.195c0.02-5.547,4.521-10.032,10.065-10.032h0.033c5.56,0.02,10.052,4.541,10.032,10.098l-0.102,30.195
			C2653.651,1815.196,2649.149,1819.681,2643.606,1819.681z M2643.809,1759.291c0,0-0.023,0-0.033,0
			c-5.56-0.02-10.052-4.538-10.032-10.098l0.098-30.195c0.02-5.547,4.521-10.032,10.065-10.032h0.033
			c5.56,0.02,10.052,4.538,10.032,10.098l-0.098,30.195C2653.854,1754.805,2649.352,1759.291,2643.809,1759.291z M2644.009,1698.901
			h-0.033c-5.56-0.02-10.052-4.541-10.032-10.098l0.102-30.195c0.02-5.547,4.521-10.032,10.065-10.032c0.01,0,0.023,0,0.023,0
			c5.57,0.02,10.062,4.541,10.042,10.098l-0.102,30.195C2654.054,1694.415,2649.552,1698.901,2644.009,1698.901z M2644.208,1638.51
			h-0.033c-5.56-0.02-10.052-4.541-10.032-10.098l0.102-30.195c0.02-5.547,4.521-10.032,10.065-10.032h0.033
			c5.56,0.02,10.052,4.541,10.032,10.098l-0.101,30.195C2654.254,1634.025,2649.752,1638.51,2644.208,1638.51z M2644.408,1578.12
			h-0.033c-5.56-0.02-10.052-4.541-10.032-10.098l0.101-30.195c0.02-5.547,4.521-10.032,10.065-10.032h0.033
			c5.56,0.02,10.052,4.541,10.032,10.098l-0.102,30.195C2654.454,1573.635,2649.952,1578.12,2644.408,1578.12z M2644.612,1517.73
			h-0.033c-5.56-0.02-10.049-4.538-10.032-10.098l0.098-30.195c0.02-5.547,4.521-10.032,10.065-10.032h0.033
			c5.56,0.02,10.052,4.538,10.032,10.098l-0.098,30.195C2654.657,1513.245,2650.155,1517.73,2644.612,1517.73z M2644.811,1457.34
			h-0.033c-5.56-0.02-10.052-4.538-10.032-10.098l0.098-30.195c0.02-5.547,4.521-10.032,10.065-10.032h0.033
			c5.56,0.02,10.049,4.538,10.032,10.098l-0.098,30.195C2654.857,1452.855,2650.355,1457.34,2644.811,1457.34z M2645.011,1396.95
			h-0.033c-5.56-0.02-10.052-4.541-10.032-10.098l0.102-30.195c0.02-5.547,4.521-10.032,10.065-10.032h0.033
			c5.56,0.02,10.052,4.541,10.032,10.098l-0.101,30.195C2655.057,1392.465,2650.555,1396.95,2645.011,1396.95z M2645.211,1336.56
			h-0.033c-5.56-0.02-10.052-4.541-10.032-10.098l0.102-30.195c0.02-5.547,4.521-10.032,10.065-10.032h0.033
			c5.56,0.02,10.052,4.541,10.032,10.098l-0.102,30.195C2655.257,1332.074,2650.755,1336.56,2645.211,1336.56z M2645.414,1276.17
			h-0.033c-5.56-0.02-10.052-4.538-10.032-10.098l0.098-30.195c0.02-5.547,4.521-10.032,10.065-10.032h0.033
			c5.56,0.02,10.049,4.538,10.032,10.098l-0.098,30.195C2655.46,1271.684,2650.958,1276.17,2645.414,1276.17z M2645.614,1215.783
			h-0.033c-5.56-0.02-10.049-4.538-10.032-10.098l0.098-30.195c0.02-5.547,4.521-10.032,10.065-10.032h0.033
			c5.56,0.02,10.052,4.538,10.032,10.098l-0.098,30.195C2655.659,1211.298,2651.158,1215.783,2645.614,1215.783z"/>
		<g>
			<g>
				<g>
					
						<linearGradient id="SVGID_00000085249709576616039590000013884466026406824101_" gradientUnits="userSpaceOnUse" x1="1148.2349" y1="1580.7458" x2="1105.7382" y2="2133.2031">
						<stop  offset="0" style="stop-color:#4F52FF"/>
						<stop  offset="1" style="stop-color:#4042E2"/>
					</linearGradient>
					
						<circle style="fill:url(#SVGID_00000085249709576616039590000013884466026406824101_);" cx="1135.582" cy="1745.228" r="131.19"/>
					
						<linearGradient id="SVGID_00000103974594813507004600000005480868931651006083_" gradientUnits="userSpaceOnUse" x1="1148.0414" y1="1580.7311" x2="1105.5446" y2="2133.1899">
						<stop  offset="0" style="stop-color:#4F52FF"/>
						<stop  offset="1" style="stop-color:#4042E2"/>
					</linearGradient>
					<path style="fill:url(#SVGID_00000103974594813507004600000005480868931651006083_);" d="M1266.533,1738.194h-130.951h-131.19
						c0,0-10.444,72.816,106.641,272.262c5.109,8.702,14.443,13.902,24.533,13.906c10.09,0.005,19.441-5.108,24.549-13.811
						C1277.189,1811.089,1266.533,1738.194,1266.533,1738.194z"/>
				</g>
				<g>
					<g>
						<path style="fill:#91B3FA;" d="M1135.524,2028.619v0.738h0.041c-11.419,0-22.078-6.283-27.816-16.057
							c-68.44-116.582-93.518-190.297-102.502-231.545c-2.561-9.488-4.033-18.79-4.498-28.327c-0.793-9.755-0.186-13.865-0.115-14.3
							l0.345-2.099c5.286-70.471,63.937-125.314,134.603-125.314c71.595,0,130.775,55.621,134.776,126.653
							c0.1,0.929,0.292,3.288,0.217,7.232l0.006,0.484c0,12.885-1.821,25.648-5.411,37.935
							c-9.293,41.212-34.525,114.199-101.799,228.815C1157.597,2022.673,1147.328,2028.619,1135.524,2028.619z M1007.973,1744.096
							c-0.031,1.967,0.029,4.776,0.374,9.006l0.008-0.014c0.436,9.034,1.832,17.733,4.27,26.738l0.045,0.151
							c8.849,40.688,33.667,113.48,101.648,229.28c4.377,7.455,12.49,12.08,21.221,12.084l-0.016,3.8v-3.809
							c7.869,0,16.866-4.67,21.279-12.188c66.842-113.882,91.797-186.256,100.949-226.917l0.068-0.235
							c3.409-11.627,4.378-23.708,4.378-35.909l-0.765-0.536v-0.043c0-3.798,0.643-5.851,0.582-6.39l0.363-0.221
							c-3.724-67.047-59.396-119.567-126.985-119.567c-67.46,0-123.22,53.261-127.066,120.895l-0.109,3.873H1007.973z"/>
					</g>
				</g>
				
					<ellipse transform="matrix(0.7071 -0.7071 0.7071 0.7071 -901.0346 1314.3186)" style="fill:#FFFFFF;" cx="1136.006" cy="1744.804" rx="75.751" ry="75.752"/>
				<g>
					<g>
						<path style="fill:#91B3FA;" d="M1136.006,1824.788c-44.103,0-79.984-35.88-79.984-79.983c0-44.103,35.88-79.984,79.984-79.984
							c44.103,0,79.984,35.881,79.984,79.984C1215.989,1788.907,1180.109,1824.788,1136.006,1824.788z M1136.006,1673.285
							c-39.436,0-71.52,32.084-71.52,71.52c0,39.436,32.084,71.52,71.52,71.52c39.436,0,71.52-32.084,71.52-71.52
							C1207.526,1705.368,1175.442,1673.285,1136.006,1673.285z"/>
					</g>
				</g>
			</g>
			<g>
				<path style="fill:#FFFFFF;" d="M1064.147,1665.935c-0.357,0-0.712-0.15-0.964-0.443c-0.457-0.532-0.396-1.333,0.136-1.79
					c21.28-18.276,48.469-28.341,76.557-28.341c0.701,0,1.27,0.568,1.27,1.269c0,0.701-0.568,1.27-1.27,1.27
					c-27.482,0-54.083,9.848-74.903,27.728C1064.735,1665.834,1064.44,1665.935,1064.147,1665.935z"/>
			</g>
			<g>
				<path style="fill:#FFFFFF;" d="M1023.584,1754.194c-0.701,0-1.269-0.568-1.269-1.269c0-21.936,6.081-43.336,17.587-61.885
					c0.37-0.596,1.153-0.779,1.748-0.41c0.596,0.37,0.779,1.153,0.41,1.748c-11.256,18.146-17.206,39.083-17.206,60.546
					C1024.853,1753.626,1024.285,1754.194,1023.584,1754.194z"/>
			</g>
		</g>
		<g>
			<g>
				<g>
					
						<linearGradient id="SVGID_00000181047743098399360300000015284347425137388732_" gradientUnits="userSpaceOnUse" x1="1961.7791" y1="1992.3722" x2="2369.3926" y2="1494.1777">
						<stop  offset="0" style="stop-color:#4F52FF"/>
						<stop  offset="1" style="stop-color:#4042E2"/>
					</linearGradient>
					
						<circle style="fill:url(#SVGID_00000181047743098399360300000015284347425137388732_);" cx="1873.261" cy="2100.562" r="131.19"/>
					
						<linearGradient id="SVGID_00000134227116000246465620000000339626439961138583_" gradientUnits="userSpaceOnUse" x1="1993.2576" y1="2018.1272" x2="2400.8713" y2="1519.9325">
						<stop  offset="0" style="stop-color:#4F52FF"/>
						<stop  offset="1" style="stop-color:#4042E2"/>
					</linearGradient>
					<path style="fill:url(#SVGID_00000134227116000246465620000000339626439961138583_);" d="M2004.211,2093.528h-130.951h-131.19
						c0,0-10.444,72.816,106.641,272.262c5.109,8.702,14.443,13.902,24.533,13.906c10.09,0.005,19.441-5.108,24.549-13.811
						C2014.867,2166.423,2004.211,2093.528,2004.211,2093.528z"/>
				</g>
				<g>
					<g>
						<path style="fill:#91B3FA;" d="M1873.202,2383.953v0.738h0.04c-11.419,0-22.078-6.283-27.816-16.057
							c-68.44-116.583-93.518-190.297-102.502-231.545c-2.561-9.488-4.033-18.791-4.498-28.327
							c-0.793-9.755-0.186-13.865-0.115-14.3l0.345-2.099c5.286-70.471,63.937-125.314,134.603-125.314
							c71.595,0,130.775,55.621,134.776,126.653c0.1,0.93,0.292,3.288,0.217,7.232l0.006,0.484c0,12.885-1.821,25.648-5.411,37.935
							c-9.293,41.212-34.526,114.199-101.799,228.815C1895.275,2378.007,1885.006,2383.953,1873.202,2383.953z M1745.651,2099.43
							c-0.031,1.968,0.029,4.777,0.374,9.006l0.009-0.014c0.436,9.034,1.832,17.733,4.27,26.738l0.045,0.151
							c8.849,40.688,33.667,113.48,101.648,229.281c4.377,7.455,12.491,12.08,21.221,12.084l-0.016,3.8v-3.809
							c7.869,0,16.865-4.67,21.278-12.188c66.842-113.882,91.797-186.256,100.949-226.917l0.068-0.235
							c3.409-11.626,4.378-23.708,4.378-35.909l-0.765-0.536v-0.043c0-3.798,0.643-5.851,0.582-6.39l0.363-0.22
							c-3.724-67.047-59.396-119.567-126.985-119.567c-67.46,0-123.22,53.261-127.066,120.895l-0.109,3.873H1745.651z"/>
					</g>
				</g>
				
					<ellipse transform="matrix(0.7071 -0.7071 0.7071 0.7071 -936.2327 1940.0107)" style="fill:#FFFFFF;" cx="1873.684" cy="2100.138" rx="75.751" ry="75.752"/>
				<g>
					<g>
						<path style="fill:#91B3FA;" d="M1873.684,2180.122c-44.103,0-79.984-35.881-79.984-79.984s35.88-79.984,79.984-79.984
							c44.103,0,79.984,35.881,79.984,79.984S1917.787,2180.122,1873.684,2180.122z M1873.684,2028.619
							c-39.436,0-71.52,32.084-71.52,71.52s32.084,71.52,71.52,71.52c39.436,0,71.52-32.084,71.52-71.52
							S1913.12,2028.619,1873.684,2028.619z"/>
					</g>
				</g>
			</g>
			<g>
				<path style="fill:#FFFFFF;" d="M1801.826,2021.269c-0.357,0-0.712-0.15-0.964-0.443c-0.457-0.532-0.396-1.333,0.136-1.79
					c21.28-18.276,48.469-28.341,76.557-28.341c0.701,0,1.269,0.568,1.269,1.27c0,0.701-0.568,1.269-1.269,1.269
					c-27.482,0-54.083,9.848-74.903,27.728C1802.413,2021.168,1802.119,2021.269,1801.826,2021.269z"/>
			</g>
			<g>
				<path style="fill:#FFFFFF;" d="M1761.262,2109.528c-0.701,0-1.269-0.568-1.269-1.27c0-21.936,6.081-43.336,17.587-61.884
					c0.37-0.596,1.153-0.78,1.748-0.41c0.596,0.37,0.779,1.152,0.41,1.748c-11.256,18.146-17.206,39.083-17.206,60.546
					C1762.531,2108.959,1761.963,2109.528,1761.262,2109.528z"/>
			</g>
		</g>
		<g>
			<g>
				
					<linearGradient id="SVGID_00000152957763198613393120000016619898812002650514_" gradientUnits="userSpaceOnUse" x1="2534.7124" y1="1555.0046" x2="2809.822" y2="327.0738">
					<stop  offset="0" style="stop-color:#09005D"/>
					<stop  offset="1" style="stop-color:#1A0F91"/>
				</linearGradient>
				<path style="fill:url(#SVGID_00000152957763198613393120000016619898812002650514_);" d="M2270.822,1087.042
					c0,194.324,163.488,351.855,365.16,351.855s374.193-164.414,374.193-358.738s-172.52-344.971-374.193-344.971
					S2270.822,892.718,2270.822,1087.042z"/>
				<g>
					<path style="fill:#91B3FA;" d="M2981.504,1001.488c0.217,0,0.434-0.024,0.65-0.08c1.347-0.347,2.147-1.676,1.79-2.976
						c-3.93-14.217-8.949-28.321-14.92-41.916c-0.544-1.234-2.031-1.798-3.305-1.291c-1.283,0.526-1.881,1.95-1.339,3.189
						c5.88,13.382,10.822,27.267,14.689,41.271C2979.37,1000.772,2980.392,1001.488,2981.504,1001.488z"/>
					<path style="fill:#91B3FA;" d="M2925.704,891.532c0.527,0,1.061-0.161,1.517-0.489c1.111-0.807,1.332-2.335,0.495-3.402
						c-67.655-86.448-176.633-138.054-291.516-138.054c-49.063,0-96.52,9.586-141.046,28.482c-1.273,0.541-1.852,1.979-1.29,3.203
						c0.559,1.229,2.049,1.784,3.325,1.248c43.88-18.63,90.652-28.074,139.011-28.074c113.31,0,220.78,50.885,287.488,136.118
						C2924.184,891.2,2924.938,891.532,2925.704,891.532z"/>
				</g>
				
					<linearGradient id="SVGID_00000113344664318120689200000007805256194963147145_" gradientUnits="userSpaceOnUse" x1="3261.9253" y1="707.876" x2="3040.4951" y2="842.0762">
					<stop  offset="0" style="stop-color:#4F52FF"/>
					<stop  offset="1" style="stop-color:#4042E2"/>
				</linearGradient>
				<path style="fill:url(#SVGID_00000113344664318120689200000007805256194963147145_);" d="M2320.503,1087.042
					c0,168.209,141.517,304.569,316.087,304.569s323.905-142.318,323.905-310.526c0-168.209-149.335-298.611-323.905-298.611
					S2320.503,918.833,2320.503,1087.042z"/>
				
					<linearGradient id="SVGID_00000065065367925635962090000007686152701030616741_" gradientUnits="userSpaceOnUse" x1="2320.5039" y1="1084.9886" x2="2878.261" y2="1084.9886">
					<stop  offset="0" style="stop-color:#4F52FF"/>
					<stop  offset="1" style="stop-color:#4042E2"/>
				</linearGradient>
				<path style="fill:url(#SVGID_00000065065367925635962090000007686152701030616741_);" d="M2320.504,1087.042
					c0-168.208,141.516-304.569,316.086-304.569c94.529,0,181.645,38.251,241.671,100.022l-243.49,195.215l-50.055,309.794
					C2434.829,1363.656,2320.504,1238.224,2320.504,1087.042z"/>
				
					<linearGradient id="SVGID_00000183212244445246770290000017951293267273604002_" gradientUnits="userSpaceOnUse" x1="2363.5264" y1="1065.8682" x2="2953.105" y2="1065.8682">
					<stop  offset="0" style="stop-color:#DAE3FE"/>
					<stop  offset="1" style="stop-color:#E9EFFD"/>
				</linearGradient>
				<path style="opacity:0.22;fill:url(#SVGID_00000183212244445246770290000017951293267273604002_);" d="M2363.526,1065.868
					c0,151.805,130.37,274.868,291.188,274.868c160.819,0,298.391-128.439,298.391-280.245c0-151.805-137.572-269.49-298.391-269.49
					C2493.896,791.001,2363.526,914.063,2363.526,1065.868z"/>
				<path style="opacity:0.78;fill:#FFFFFF;" d="M2879.716,1071.245c0.782,12.928,12.291,22.799,25.709,22.047
					c13.417-0.753,23.661-11.843,22.879-24.771c-0.781-12.928-12.291-22.799-25.709-22.047
					C2889.179,1047.226,2878.936,1058.316,2879.716,1071.245z"/>
				<path style="opacity:0.78;fill:#FFFFFF;" d="M2353.968,1100.731c0.78,12.928,12.291,22.799,25.708,22.047
					c13.418-0.753,23.662-11.843,22.881-24.772c-0.781-12.928-12.291-22.799-25.708-22.046
					C2363.431,1076.712,2353.187,1087.802,2353.968,1100.731z"/>
				<path style="opacity:0.78;fill:#FFFFFF;" d="M2684.076,1311.153c-13.221,2.327-21.981,14.541-19.566,27.28
					c2.415,12.74,15.091,21.181,28.312,18.854c13.221-2.327,21.981-14.541,19.566-27.28
					C2709.973,1317.267,2697.298,1308.827,2684.076,1311.153z"/>
				<path style="opacity:0.78;fill:#FFFFFF;" d="M2589.451,811.963c-13.222,2.327-21.982,14.54-19.567,27.28
					c2.415,12.74,15.09,21.18,28.312,18.853c13.221-2.326,21.982-14.541,19.567-27.28
					C2615.348,818.077,2602.672,809.637,2589.451,811.963z"/>
				<path style="opacity:0.78;fill:#FFFFFF;" d="M2511.068,1324.556c-2.474,6.012-1.856,11.641,1.38,12.573
					c3.235,0.932,7.863-3.186,10.336-9.197c2.473-6.012,1.855-11.642-1.38-12.574
					C2518.168,1314.426,2513.54,1318.544,2511.068,1324.556z"/>
				<path style="opacity:0.78;fill:#FFFFFF;" d="M2722.576,851.074c-2.473,6.012-1.855,11.641,1.38,12.573
					c3.236,0.933,7.863-3.186,10.336-9.197c2.473-6.012,1.855-11.642-1.38-12.574
					C2729.677,840.944,2725.049,845.063,2722.576,851.074z"/>
				<path style="opacity:0.78;fill:#FFFFFF;" d="M2400.631,1234.548c-5.353,3.901-7.859,9.022-5.596,11.437
					c2.263,2.416,8.437,1.211,13.79-2.689c5.353-3.902,7.858-9.022,5.595-11.437
					C2412.158,1229.443,2405.984,1230.647,2400.631,1234.548z"/>
				<path style="opacity:0.78;fill:#FFFFFF;" d="M2836.534,935.71c-5.353,3.901-7.858,9.021-5.595,11.436
					c2.262,2.416,8.437,1.212,13.79-2.689c5.354-3.901,7.859-9.022,5.596-11.437C2848.061,930.605,2841.887,931.81,2836.534,935.71z
					"/>
				<path style="opacity:0.78;fill:#FFFFFF;" d="M2386.761,966.456c-6.06-2.78-11.93-2.563-13.112,0.485
					c-1.183,3.048,2.771,7.772,8.831,10.553c6.06,2.78,11.931,2.563,13.112-0.485
					C2396.774,973.961,2392.821,969.237,2386.761,966.456z"/>
				<path style="opacity:0.78;fill:#FFFFFF;" d="M2862.879,1201.511c-6.06-2.78-11.93-2.563-13.112,0.485
					c-1.183,3.048,2.772,7.773,8.832,10.553c6.059,2.781,11.93,2.563,13.112-0.485
					C2872.893,1209.017,2868.938,1204.292,2862.879,1201.511z"/>
				<path style="opacity:0.78;fill:#FFFFFF;" d="M2487.359,866.311c-3.68-5.408-8.815-8.159-11.468-6.146
					c-2.653,2.014-1.819,8.03,1.861,13.438c3.681,5.407,8.816,8.159,11.467,6.145
					C2491.873,877.736,2491.039,871.719,2487.359,866.311z"/>
				<path style="opacity:0.78;fill:#FFFFFF;" d="M2767.607,1305.402c-3.68-5.407-8.815-8.158-11.468-6.145
					c-2.653,2.013-1.819,8.029,1.862,13.437c3.68,5.408,8.815,8.159,11.468,6.146
					C2772.122,1316.826,2771.288,1310.81,2767.607,1305.402z"/>
				
					<linearGradient id="SVGID_00000181070867846661328500000003528059235019372940_" gradientUnits="userSpaceOnUse" x1="2659.354" y1="1043.6288" x2="2991.5" y2="1308.675">
					<stop  offset="0" style="stop-color:#FE7062"/>
					<stop  offset="1" style="stop-color:#FF928E"/>
				</linearGradient>
				<path style="fill:url(#SVGID_00000181070867846661328500000003528059235019372940_);" d="M2646.432,1077.603l195.491,93.946
					c3.788,1.82,8.22-0.914,8.092-4.99l-0.768-24.248c-0.149-4.716,5.617-7.33,9.292-4.21l141.347,119.915
					c4.324,3.669,0.767,10.481-4.867,9.321l-182.048-37.455c-4.356-0.896-5.932-6.1-2.76-9.113l21.313-20.251
					c2.634-2.503,2.068-6.736-1.138-8.514l-189.242-104.901c-2.635-1.461-3.578-4.682-2.123-7.255l0,0
					C2640.463,1077.3,2643.738,1076.309,2646.432,1077.603z"/>
				<path style="opacity:0.7;fill:#FFFFFF;" d="M2977.907,1257.457c1.817,0,3.462-0.977,4.292-2.624
					c0.992-1.97,0.482-4.223-1.269-5.619l-30.93-24.638c-1.072-0.854-2.665-0.707-3.549,0.327c-0.889,1.034-0.736,2.563,0.338,3.421
					l30.931,24.639c-41.214-9.069-137.739-29.337-139.741-29.531c-1.352-0.151-2.623,0.831-2.766,2.169
					c-0.137,1.319,0.843,2.496,2.197,2.658c2.893,0.446,76.865,15.935,139.428,29.084
					C2977.198,1257.418,2977.555,1257.457,2977.907,1257.457z"/>
				
					<linearGradient id="SVGID_00000017487612666016195850000009120807297592059030_" gradientUnits="userSpaceOnUse" x1="3436.2397" y1="1162.3241" x2="3080.6099" y2="1051.6095">
					<stop  offset="0" style="stop-color:#FE7062"/>
					<stop  offset="1" style="stop-color:#FF928E"/>
				</linearGradient>
				<path style="fill:url(#SVGID_00000017487612666016195850000009120807297592059030_);" d="M2621.513,1068.98l0.342-162.378
					c-0.057-3.595-4.075-5.83-7.334-4.079l-19.389,10.412c-3.771,2.026-8.233-1.264-7.19-5.301l40.099-155.251
					c1.227-4.749,8.203-4.83,9.546-0.109l43.402,152.509c1.038,3.649-2.55,6.949-6.285,5.778l-25.096-7.863
					c-3.102-0.972-6.311,1.172-6.455,4.312l-11.779,162.108c-0.117,2.581-2.352,4.598-5.033,4.544l0,0
					C2623.688,1073.606,2621.554,1071.538,2621.513,1068.98z"/>
				<path style="opacity:0.7;fill:#FFFFFF;" d="M2667.671,889.894c0.271,0,0.545-0.046,0.812-0.146
					c1.129-0.427,1.692-1.644,1.275-2.737c-0.808-2.351-18.224-64.434-32.917-116.965c-0.521-1.858-2.16-3.079-4.211-3.033
					c-2.002,0.05-3.63,1.351-4.053,3.238l-7.473,33.324c-0.258,1.155,0.504,2.297,1.704,2.544c1.188,0.255,2.379-0.481,2.642-1.64
					l7.473-33.324c9.348,34.767,32.031,115.786,32.68,117.38C2665.946,889.379,2666.784,889.894,2667.671,889.894z"/>
				
					<linearGradient id="SVGID_00000125590969853721282030000009653581670906882999_" gradientUnits="userSpaceOnUse" x1="2668.0547" y1="980.8148" x2="2558.4575" y2="1338.6826">
					<stop  offset="0" style="stop-color:#FE7062"/>
					<stop  offset="1" style="stop-color:#FF928E"/>
				</linearGradient>
				
					<ellipse style="fill:url(#SVGID_00000125590969853721282030000009653581670906882999_);" cx="2638.222" cy="1078.226" rx="25.99" ry="25.044"/>
			</g>
		</g>
		<g>
			<g>
				
					<linearGradient id="SVGID_00000139271015700799207270000002500111988133336201_" gradientUnits="userSpaceOnUse" x1="2295.8369" y1="784.3366" x2="3282.6033" y2="-269.5584">
					<stop  offset="0" style="stop-color:#09005D"/>
					<stop  offset="1" style="stop-color:#1A0F91"/>
				</linearGradient>
				<path style="fill:url(#SVGID_00000139271015700799207270000002500111988133336201_);" d="M1472.502,1272.916
					c0,194.324,163.488,351.855,365.16,351.855s374.193-164.414,374.193-358.738c0-194.324-172.52-344.971-374.193-344.971
					S1472.502,1078.593,1472.502,1272.916z"/>
				<g>
					<path style="fill:#91B3FA;" d="M2183.185,1187.362c0.217,0,0.434-0.024,0.65-0.08c1.347-0.347,2.147-1.676,1.79-2.975
						c-3.93-14.217-8.949-28.321-14.92-41.916c-0.544-1.234-2.031-1.798-3.305-1.291c-1.283,0.526-1.881,1.95-1.339,3.189
						c5.88,13.382,10.822,27.267,14.688,41.271C2181.05,1186.646,2182.072,1187.362,2183.185,1187.362z"/>
					<path style="fill:#91B3FA;" d="M2127.384,1077.406c0.527,0,1.061-0.161,1.516-0.489c1.111-0.807,1.332-2.334,0.495-3.402
						c-67.655-86.448-176.633-138.054-291.516-138.054c-49.064,0-96.52,9.586-141.046,28.482c-1.273,0.541-1.851,1.979-1.29,3.203
						c0.559,1.229,2.049,1.784,3.325,1.248c43.88-18.63,90.652-28.074,139.011-28.074c113.31,0,220.78,50.885,287.488,136.118
						C2125.865,1077.074,2126.618,1077.406,2127.384,1077.406z"/>
				</g>
				
					<linearGradient id="SVGID_00000076591371960637780800000002167066489132880556_" gradientUnits="userSpaceOnUse" x1="236.3483" y1="1253.9379" x2="-157.1163" y2="1729.0649" gradientTransform="matrix(-1 0 0 1 2062.8765 0)">
					<stop  offset="0" style="stop-color:#FE7062"/>
					<stop  offset="1" style="stop-color:#FF928E"/>
				</linearGradient>
				<path style="fill:url(#SVGID_00000076591371960637780800000002167066489132880556_);" d="M1522.183,1272.916
					c0,168.209,141.517,304.568,316.087,304.568s323.905-142.318,323.905-310.526c0-168.209-149.335-298.611-323.905-298.611
					S1522.183,1104.707,1522.183,1272.916z"/>
				
					<linearGradient id="SVGID_00000151516588155416793310000004473331932746370432_" gradientUnits="userSpaceOnUse" x1="417.6618" y1="1073.5105" x2="-219.1601" y2="1718.9374" gradientTransform="matrix(-1 0 0 1 2062.8765 0)">
					<stop  offset="0" style="stop-color:#FE7062"/>
					<stop  offset="1" style="stop-color:#FF928E"/>
				</linearGradient>
				<path style="fill:url(#SVGID_00000151516588155416793310000004473331932746370432_);" d="M1522.184,1272.916
					c0-168.209,141.516-304.569,316.086-304.569c94.529,0,181.645,38.251,241.671,100.022l-243.49,195.215l-50.056,309.794
					C1636.509,1549.53,1522.184,1424.098,1522.184,1272.916z"/>
				<path style="opacity:0.25;fill:#FFFFFF;" d="M1565.207,1251.742c0,151.805,130.37,274.868,291.188,274.868
					c160.819,0,298.391-128.439,298.391-280.245c0-151.806-137.572-269.49-298.391-269.49
					C1695.577,976.875,1565.207,1099.937,1565.207,1251.742z"/>
				<path style="opacity:0.78;fill:#FFFFFF;" d="M2081.396,1257.119c0.782,12.929,12.291,22.799,25.709,22.047
					c13.417-0.753,23.661-11.843,22.88-24.771c-0.781-12.928-12.291-22.799-25.709-22.047
					C2090.86,1233.1,2080.616,1244.19,2081.396,1257.119z"/>
				<path style="opacity:0.78;fill:#FFFFFF;" d="M1555.649,1286.605c0.78,12.929,12.291,22.799,25.708,22.047
					c13.418-0.752,23.662-11.843,22.88-24.772c-0.781-12.928-12.291-22.799-25.708-22.046
					C1565.111,1262.586,1554.867,1273.676,1555.649,1286.605z"/>
				<path style="opacity:0.78;fill:#FFFFFF;" d="M1885.757,1497.027c-13.222,2.327-21.981,14.541-19.567,27.28
					c2.415,12.74,15.091,21.181,28.312,18.854c13.221-2.327,21.981-14.541,19.567-27.28
					C1911.654,1503.142,1898.978,1494.701,1885.757,1497.027z"/>
				<path style="opacity:0.78;fill:#FFFFFF;" d="M1791.132,997.838c-13.222,2.327-21.982,14.541-19.567,27.28
					c2.415,12.74,15.09,21.181,28.312,18.853c13.221-2.326,21.982-14.54,19.567-27.28
					C1817.029,1003.952,1804.353,995.511,1791.132,997.838z"/>
				<path style="opacity:0.78;fill:#FFFFFF;" d="M1712.748,1510.43c-2.474,6.012-1.856,11.641,1.38,12.573
					c3.235,0.932,7.863-3.186,10.336-9.197c2.473-6.012,1.855-11.642-1.38-12.574
					C1719.848,1500.3,1715.22,1504.418,1712.748,1510.43z"/>
				<path style="opacity:0.78;fill:#FFFFFF;" d="M1924.256,1036.948c-2.473,6.012-1.855,11.641,1.38,12.573
					c3.236,0.933,7.863-3.186,10.337-9.197c2.473-6.012,1.855-11.642-1.38-12.574
					C1931.357,1026.819,1926.729,1030.937,1924.256,1036.948z"/>
				<path style="opacity:0.78;fill:#FFFFFF;" d="M1602.312,1420.422c-5.353,3.901-7.859,9.022-5.596,11.437
					c2.263,2.416,8.436,1.211,13.79-2.689c5.353-3.902,7.858-9.022,5.595-11.437
					C1613.839,1415.317,1607.665,1416.522,1602.312,1420.422z"/>
				<path style="opacity:0.78;fill:#FFFFFF;" d="M2038.215,1121.584c-5.353,3.901-7.858,9.021-5.596,11.436
					c2.262,2.416,8.437,1.212,13.79-2.689c5.354-3.901,7.859-9.022,5.596-11.437
					C2049.742,1116.48,2043.568,1117.684,2038.215,1121.584z"/>
				<path style="opacity:0.78;fill:#FFFFFF;" d="M1588.441,1152.33c-6.06-2.78-11.93-2.563-13.112,0.485
					c-1.182,3.048,2.771,7.772,8.831,10.553c6.06,2.78,11.931,2.563,13.112-0.485
					C1598.455,1159.836,1594.501,1155.111,1588.441,1152.33z"/>
				<path style="opacity:0.78;fill:#FFFFFF;" d="M2064.56,1387.386c-6.06-2.78-11.93-2.563-13.112,0.485
					c-1.183,3.048,2.772,7.773,8.832,10.553c6.059,2.781,11.93,2.563,13.112-0.485
					C2074.574,1394.891,2070.619,1390.166,2064.56,1387.386z"/>
				<path style="opacity:0.78;fill:#FFFFFF;" d="M1689.039,1052.186c-3.68-5.408-8.815-8.159-11.468-6.146
					c-2.653,2.014-1.819,8.03,1.861,13.438c3.681,5.407,8.816,8.159,11.467,6.145
					C1693.553,1063.61,1692.719,1057.593,1689.039,1052.186z"/>
				<path style="opacity:0.78;fill:#FFFFFF;" d="M1969.288,1491.276c-3.681-5.407-8.816-8.159-11.468-6.145
					c-2.652,2.013-1.819,8.029,1.862,13.437c3.68,5.408,8.815,8.159,11.468,6.146
					C1973.802,1502.7,1972.968,1496.684,1969.288,1491.276z"/>
				<g>
					
						<linearGradient id="SVGID_00000059998022310735308880000009851781854824026797_" gradientUnits="userSpaceOnUse" x1="1991.7428" y1="871.6769" x2="1841.8861" y2="1222.8345">
						<stop  offset="0" style="stop-color:#4F52FF"/>
						<stop  offset="1" style="stop-color:#4042E2"/>
					</linearGradient>
					<path style="fill:url(#SVGID_00000059998022310735308880000009851781854824026797_);" d="M1828.306,1271.986l65.635-206.724
						c1.271-4.005-2.056-8.011-6.074-7.313l-23.901,4.157c-4.649,0.808-8.044-4.535-5.47-8.611l98.932-156.751
						c3.027-4.795,10.27-2.228,9.911,3.513l-11.584,185.5c-0.277,4.439-5.208,6.728-8.636,4.01l-23.037-18.266
						c-2.847-2.257-6.959-1.104-8.271,2.32l-77.357,202.071c-1.077,2.814-4.135,4.199-6.886,3.119l0,0
						C1828.842,1277.94,1827.402,1274.836,1828.306,1271.986z"/>
					
						<linearGradient id="SVGID_00000133529604421090534670000004510388573814612621_" gradientUnits="userSpaceOnUse" x1="1930.9525" y1="989.3946" x2="1960.0009" y2="989.3946">
						<stop  offset="0" style="stop-color:#DAE3FE"/>
						<stop  offset="1" style="stop-color:#E9EFFD"/>
					</linearGradient>
					<path style="fill:url(#SVGID_00000133529604421090534670000004510388573814612621_);" d="M1959.952,918.586
						c-0.255-1.799-1.453-3.291-3.199-3.882c-2.089-0.707-4.249,0.114-5.385,2.043l-20.063,34.077
						c-0.696,1.181-0.327,2.738,0.821,3.468c1.149,0.735,2.641,0.37,3.34-0.814l20.063-34.077
						c-3.206,42.078-9.752,140.49-9.665,142.5c0.04,1.36,1.19,2.481,2.535,2.435c1.325-0.049,2.354-1.184,2.324-2.547
						c0.037-2.927,5.011-78.339,9.266-142.127C1960.013,919.294,1960.001,918.935,1959.952,918.586z"/>
				</g>
				<g>
					
						<linearGradient id="SVGID_00000066505532511933490680000004832681097065250450_" gradientUnits="userSpaceOnUse" x1="1974.9843" y1="1322.5819" x2="2270.2249" y2="799.2018">
						<stop  offset="0" style="stop-color:#4F52FF"/>
						<stop  offset="1" style="stop-color:#4042E2"/>
					</linearGradient>
					<path style="fill:url(#SVGID_00000066505532511933490680000004832681097065250450_);" d="M1836.281,1263.216l114.998,114.64
						c2.591,2.493,7.008,1.215,8.062-2.331l6.27-21.096c1.219-4.104,6.697-4.953,8.828-1.368l81.93,137.835
						c2.506,4.216-2.352,9.224-6.648,6.851l-138.812-76.643c-3.321-1.834-3.135-6.705,0.327-8.531l23.261-12.271
						c2.876-1.517,3.615-5.304,1.487-7.618l-106.748-122.566c-1.749-1.901-1.606-4.909,0.321-6.773l0,0
						C1831.466,1261.5,1834.437,1261.442,1836.281,1263.216z"/>
					
						<linearGradient id="SVGID_00000049929570972997834400000006638730236714192799_" gradientUnits="userSpaceOnUse" x1="1930.1942" y1="1453.35" x2="2043.9615" y2="1453.35">
						<stop  offset="0" style="stop-color:#DAE3FE"/>
						<stop  offset="1" style="stop-color:#E9EFFD"/>
					</linearGradient>
					<path style="fill:url(#SVGID_00000049929570972997834400000006638730236714192799_);" d="M1930.858,1422.142
						c-0.191,0.193-0.351,0.419-0.468,0.679c-0.493,1.102-0.025,2.359,1.044,2.833c2.238,1.083,58.567,32.462,106.199,59.043
						c1.686,0.939,3.707,0.636,5.119-0.852c1.375-1.456,1.599-3.528,0.558-5.158l-18.385-28.78
						c-0.638-0.997-1.985-1.261-3.006-0.583c-1.018,0.663-1.335,2.027-0.697,3.031l18.385,28.78
						c-31.26-17.86-104.738-58.841-106.327-59.503C1932.439,1421.28,1931.484,1421.512,1930.858,1422.142z"/>
				</g>
				
					<linearGradient id="SVGID_00000027592591520865307920000017768288106508031402_" gradientUnits="userSpaceOnUse" x1="1858.5208" y1="1230.3552" x2="1786.9471" y2="1360.0822">
					<stop  offset="0" style="stop-color:#4F52FF"/>
					<stop  offset="1" style="stop-color:#4042E2"/>
				</linearGradient>
				
					<ellipse style="fill:url(#SVGID_00000027592591520865307920000017768288106508031402_);" cx="1839.903" cy="1264.1" rx="25.99" ry="25.044"/>
			</g>
		</g>
		<g>
			<g>
				
					<linearGradient id="SVGID_00000096035621971300882600000005011917541016246193_" gradientUnits="userSpaceOnUse" x1="1097.4814" y1="1522.8398" x2="1050.5106" y2="462.6573">
					<stop  offset="0" style="stop-color:#09005D"/>
					<stop  offset="1" style="stop-color:#1A0F91"/>
				</linearGradient>
				<path style="fill:url(#SVGID_00000096035621971300882600000005011917541016246193_);" d="M705.753,1028.344
					c0,194.324,163.488,351.855,365.16,351.855s374.193-164.414,374.193-358.738c0-194.323-172.52-344.971-374.193-344.971
					S705.753,834.021,705.753,1028.344z"/>
				<g>
					<path style="fill:#91B3FA;" d="M1416.436,942.79c0.217,0,0.434-0.024,0.65-0.08c1.347-0.347,2.147-1.676,1.79-2.975
						c-3.93-14.217-8.949-28.321-14.92-41.916c-0.544-1.234-2.031-1.798-3.305-1.291c-1.283,0.526-1.881,1.95-1.339,3.189
						c5.88,13.382,10.822,27.267,14.689,41.271C1414.301,942.074,1415.323,942.79,1416.436,942.79z"/>
					<path style="fill:#91B3FA;" d="M1360.635,832.834c0.527,0,1.061-0.161,1.517-0.489c1.111-0.807,1.332-2.334,0.495-3.402
						c-67.655-86.448-176.633-138.054-291.516-138.054c-49.063,0-96.52,9.586-141.046,28.482c-1.273,0.541-1.852,1.979-1.29,3.203
						c0.559,1.229,2.049,1.784,3.325,1.248c43.88-18.63,90.652-28.074,139.011-28.074c113.31,0,220.78,50.885,287.488,136.118
						C1359.115,832.502,1359.869,832.834,1360.635,832.834z"/>
				</g>
				
					<linearGradient id="SVGID_00000086680960383886927150000013082795940280489884_" gradientUnits="userSpaceOnUse" x1="1328.6582" y1="410.8821" x2="1241.4279" y2="622.2476">
					<stop  offset="0" style="stop-color:#4F52FF"/>
					<stop  offset="1" style="stop-color:#4042E2"/>
				</linearGradient>
				<path style="fill:url(#SVGID_00000086680960383886927150000013082795940280489884_);" d="M755.434,1028.344
					c0,168.209,141.517,304.568,316.087,304.568s323.905-142.318,323.905-310.526c0-168.209-149.335-298.611-323.905-298.611
					S755.434,860.135,755.434,1028.344z"/>
				
					<linearGradient id="SVGID_00000071556229176977248030000005289580261706530485_" gradientUnits="userSpaceOnUse" x1="755.4351" y1="1026.2908" x2="1313.1923" y2="1026.2908">
					<stop  offset="0" style="stop-color:#4F52FF"/>
					<stop  offset="1" style="stop-color:#4042E2"/>
				</linearGradient>
				<path style="fill:url(#SVGID_00000071556229176977248030000005289580261706530485_);" d="M755.435,1028.344
					c0-168.209,141.516-304.569,316.086-304.569c94.529,0,181.645,38.251,241.671,100.022l-243.491,195.215l-50.056,309.794
					C869.76,1304.958,755.435,1179.526,755.435,1028.344z"/>
				
					<linearGradient id="SVGID_00000001660928853109725530000015790839438974961030_" gradientUnits="userSpaceOnUse" x1="674.8405" y1="1007.1705" x2="1264.4191" y2="1007.1705" gradientTransform="matrix(-1 0 0 1 2062.8765 0)">
					<stop  offset="0" style="stop-color:#DAE3FE"/>
					<stop  offset="1" style="stop-color:#E9EFFD"/>
				</linearGradient>
				<path style="opacity:0.22;fill:url(#SVGID_00000001660928853109725530000015790839438974961030_);" d="M798.457,1007.17
					c0,151.805,130.37,274.868,291.188,274.868c160.819,0,298.391-128.439,298.391-280.245c0-151.805-137.572-269.49-298.391-269.49
					C928.827,732.303,798.457,855.365,798.457,1007.17z"/>
				<path style="opacity:0.78;fill:#FFFFFF;" d="M1314.647,1012.547c0.782,12.929,12.291,22.799,25.709,22.047
					c13.417-0.753,23.661-11.843,22.88-24.771c-0.781-12.928-12.291-22.799-25.709-22.047
					C1324.11,988.528,1313.867,999.618,1314.647,1012.547z"/>
				<path style="opacity:0.78;fill:#FFFFFF;" d="M788.899,1042.033c0.78,12.929,12.291,22.799,25.708,22.046
					c13.418-0.752,23.662-11.843,22.881-24.772c-0.781-12.928-12.291-22.799-25.708-22.046
					C798.362,1018.014,788.118,1029.104,788.899,1042.033z"/>
				<path style="opacity:0.78;fill:#FFFFFF;" d="M1119.008,1252.455c-13.222,2.327-21.981,14.541-19.567,27.281
					c2.415,12.74,15.091,21.181,28.312,18.854c13.221-2.327,21.981-14.541,19.567-27.28
					C1144.905,1258.57,1132.229,1250.129,1119.008,1252.455z"/>
				<path style="opacity:0.78;fill:#FFFFFF;" d="M1024.382,753.266c-13.222,2.327-21.982,14.541-19.567,27.28
					c2.415,12.74,15.09,21.18,28.312,18.853c13.221-2.326,21.982-14.54,19.567-27.28
					C1050.28,759.38,1037.604,750.939,1024.382,753.266z"/>
				<path style="opacity:0.78;fill:#FFFFFF;" d="M945.999,1265.858c-2.474,6.012-1.856,11.641,1.38,12.573
					c3.235,0.932,7.863-3.186,10.336-9.197c2.473-6.012,1.855-11.642-1.38-12.574
					C953.099,1255.728,948.471,1259.846,945.999,1265.858z"/>
				<path style="opacity:0.78;fill:#FFFFFF;" d="M1157.507,792.376c-2.473,6.012-1.855,11.641,1.38,12.573
					c3.236,0.933,7.863-3.186,10.337-9.197c2.473-6.012,1.855-11.642-1.38-12.575
					C1164.608,782.247,1159.98,786.365,1157.507,792.376z"/>
				<path style="opacity:0.78;fill:#FFFFFF;" d="M835.563,1175.85c-5.353,3.901-7.859,9.022-5.596,11.437
					c2.263,2.416,8.436,1.211,13.79-2.689c5.353-3.902,7.858-9.022,5.595-11.437C847.089,1170.745,840.915,1171.95,835.563,1175.85z
					"/>
				<path style="opacity:0.78;fill:#FFFFFF;" d="M1271.465,877.012c-5.353,3.901-7.858,9.021-5.596,11.436
					c2.262,2.416,8.437,1.212,13.79-2.689c5.354-3.901,7.859-9.022,5.596-11.437
					C1282.992,871.908,1276.819,873.112,1271.465,877.012z"/>
				<path style="opacity:0.78;fill:#FFFFFF;" d="M821.692,907.758c-6.06-2.78-11.93-2.563-13.112,0.485
					c-1.183,3.048,2.771,7.772,8.831,10.553c6.06,2.78,11.931,2.563,13.112-0.485C831.706,915.264,827.752,910.539,821.692,907.758z
					"/>
				<path style="opacity:0.78;fill:#FFFFFF;" d="M1297.811,1142.814c-6.06-2.78-11.93-2.563-13.112,0.485
					c-1.183,3.048,2.772,7.773,8.832,10.553c6.059,2.781,11.93,2.563,13.112-0.485
					C1307.824,1150.319,1303.87,1145.594,1297.811,1142.814z"/>
				<path style="opacity:0.78;fill:#FFFFFF;" d="M922.29,807.614c-3.68-5.408-8.815-8.159-11.468-6.146
					c-2.653,2.014-1.819,8.03,1.861,13.438c3.681,5.407,8.816,8.159,11.467,6.145C926.804,819.038,925.97,813.021,922.29,807.614z"
					/>
				<path style="opacity:0.78;fill:#FFFFFF;" d="M1202.538,1246.704c-3.681-5.407-8.816-8.158-11.468-6.145
					c-2.652,2.013-1.819,8.029,1.862,13.437c3.68,5.408,8.815,8.159,11.468,6.146
					C1207.053,1258.128,1206.219,1252.112,1202.538,1246.704z"/>
				<g>
					
						<linearGradient id="SVGID_00000158028387959023701440000002306138059163211196_" gradientUnits="userSpaceOnUse" x1="1306.8965" y1="1242.4764" x2="812.5927" y2="736.9886">
						<stop  offset="0" style="stop-color:#FE7062"/>
						<stop  offset="1" style="stop-color:#FF928E"/>
					</linearGradient>
					<path style="fill:url(#SVGID_00000158028387959023701440000002306138059163211196_);" d="M1071.604,1008.742l164.499,141.361
						c3.187,2.738,8.177,1.246,9.108-2.724l5.537-23.62c1.078-4.594,7.323-5.625,10.065-1.661l105.476,152.425
						c3.226,4.664-1.973,10.322-7.114,7.743l-166.141-83.316c-3.975-1.994-4.151-7.428-0.307-9.517l25.83-14.042
						c3.192-1.735,3.741-5.971,1.105-8.519l-155.626-150.324c-2.167-2.093-2.244-5.449-0.172-7.558l0,0
						C1065.916,1006.904,1069.336,1006.794,1071.604,1008.742z"/>
					<path style="opacity:0.7;fill:#FFFFFF;" d="M1345.204,1268.291c1.755,0.471,3.597-0.047,4.825-1.423
						c1.469-1.646,1.559-3.954,0.229-5.755l-23.496-31.807c-0.814-1.102-2.391-1.373-3.512-0.603
						c-1.126,0.769-1.375,2.285-0.56,3.392l23.496,31.807c-37.46-19.431-125.445-64.001-127.328-64.707
						c-1.267-0.496-2.748,0.123-3.233,1.379c-0.474,1.239,0.167,2.63,1.434,3.136c2.679,1.18,70.117,35.295,127.142,64.195
						C1344.529,1268.07,1344.864,1268.2,1345.204,1268.291z"/>
				</g>
				<g>
					
						<linearGradient id="SVGID_00000049933265382126479980000012861840396855667344_" gradientUnits="userSpaceOnUse" x1="1271.1116" y1="634.8593" x2="1170.4613" y2="775.7697">
						<stop  offset="0" style="stop-color:#FE7062"/>
						<stop  offset="1" style="stop-color:#FF928E"/>
					</linearGradient>
					<path style="fill:url(#SVGID_00000049933265382126479980000012861840396855667344_);" d="M1078.054,1034.481l-142.194,78.408
						c-3.117,1.792-3.124,6.39-0.013,8.392l18.505,11.911c3.6,2.317,2.885,7.814-1.152,8.859l-155.231,40.179
						c-4.748,1.229-8.201-4.834-4.722-8.297l112.358-111.886c2.689-2.677,7.314-1.138,8.1,2.697l5.287,25.762
						c0.653,3.185,4.084,4.952,6.9,3.556l147.5-68.273c2.314-1.148,5.162-0.171,6.414,2.2l0,0
						C1081.046,1030.336,1080.272,1033.205,1078.054,1034.481z"/>
					<path style="opacity:0.7;fill:#FFFFFF;" d="M899.039,1080.914c-0.131-0.237-0.305-0.454-0.521-0.639
						c-0.921-0.781-2.258-0.683-3.012,0.211c-1.665,1.846-47.525,47.172-86.351,85.486c-1.372,1.356-1.646,3.382-0.612,5.154
						c1.014,1.727,2.941,2.521,4.797,1.976l32.769-9.616c1.135-0.334,1.765-1.554,1.399-2.724c-0.352-1.162-1.574-1.848-2.715-1.516
						l-32.769,9.616c25.879-25.029,85.749-84.139,86.828-85.48C899.425,1082.672,899.469,1081.69,899.039,1080.914z"/>
				</g>
				
					<linearGradient id="SVGID_00000057866592486819092820000012158130448095309955_" gradientUnits="userSpaceOnUse" x1="1094.5811" y1="938.0097" x2="991.6946" y2="1329.4272">
					<stop  offset="0" style="stop-color:#FE7062"/>
					<stop  offset="1" style="stop-color:#FF928E"/>
				</linearGradient>
				
					<ellipse style="fill:url(#SVGID_00000057866592486819092820000012158130448095309955_);" cx="1073.154" cy="1019.528" rx="25.99" ry="25.044"/>
			</g>
		</g>
		<g>
			
				<linearGradient id="SVGID_00000109030341350743053530000005708601200642195120_" gradientUnits="userSpaceOnUse" x1="2836.8914" y1="2455.303" x2="2823.4712" y2="1822.3236">
				<stop  offset="0" style="stop-color:#09005D"/>
				<stop  offset="1" style="stop-color:#1A0F91"/>
			</linearGradient>
			<polygon style="fill:url(#SVGID_00000109030341350743053530000005708601200642195120_);" points="2762.345,2021.31 
				2879.77,2310.908 2899.061,2305.545 2779.12,2015.947 			"/>
			
				<linearGradient id="SVGID_00000060003039404243118580000009162491912432815520_" gradientUnits="userSpaceOnUse" x1="2223.238" y1="1769.6952" x2="2233.3035" y2="1397.2896" gradientTransform="matrix(1 0 0 1 579.8614 0)">
				<stop  offset="0" style="stop-color:#E1473D"/>
				<stop  offset="1" style="stop-color:#E9605A"/>
			</linearGradient>
			<path style="fill:url(#SVGID_00000060003039404243118580000009162491912432815520_);" d="M2713.057,1642.583
				c0,0,35.83,17.428,42.418,37.448c5.286,16.064,44.904,18.135,48.818,49.728c2.021,16.312,14.091,29.375,30.338,31.865
				c40.463,6.202,102.821,27.214,112.799,97.467c7.616,53.624-19.721,73.957-48.41,80.995
				c-21.071,5.169-35.074,25.665-30.812,46.938c4.088,20.404-2.008,43.993-37.357,62.645
				c-79.215,41.799-158.323-99.025-158.323-99.025l-16.212-245.887L2713.057,1642.583z"/>
			
				<linearGradient id="SVGID_00000039093077943943233910000009433613470385216669_" gradientUnits="userSpaceOnUse" x1="1641.7954" y1="2211.1707" x2="1838.1401" y2="2657.8992" gradientTransform="matrix(0.9776 -0.2106 0.2106 0.9776 329.4415 -113.5247)">
				<stop  offset="0" style="stop-color:#FEBBBA"/>
				<stop  offset="1" style="stop-color:#FF928E"/>
			</linearGradient>
			<path style="fill:url(#SVGID_00000039093077943943233910000009433613470385216669_);" d="M2282.026,1584.29
				c0,0,158.163,250.17,346.238,298.491c0,0-36.647,104.378-64.933,116.323c0,0-231.385-193.064-290.848-379.266L2282.026,1584.29z"
				/>
			
				<linearGradient id="SVGID_00000072979775368538063570000010081551373841263519_" gradientUnits="userSpaceOnUse" x1="2458.6941" y1="3205.9924" x2="2548.8162" y2="3205.9924" gradientTransform="matrix(1 0 0 1 579.8614 0)">
				<stop  offset="0" style="stop-color:#09005D"/>
				<stop  offset="1" style="stop-color:#1A0F91"/>
			</linearGradient>
			<path style="fill:url(#SVGID_00000072979775368538063570000010081551373841263519_);" d="M3038.663,3184.378l5.126,42.14
				c0.973,7.994,7.267,14.316,15.268,15.23c13.509,1.543,35.188,3.125,56.398,0.883c9.31-0.984,15.354-10.411,12.518-19.333
				c-5.171-16.268-14.63-40.688-28.269-55.059h-46.747C3044.315,3168.239,3037.619,3175.799,3038.663,3184.378z"/>
			
				<linearGradient id="SVGID_00000044164007017478879100000009788388493810621615_" gradientUnits="userSpaceOnUse" x1="2685.0845" y1="3331.1594" x2="2722.1199" y2="2898.3074">
				<stop  offset="0" style="stop-color:#FEBBBA"/>
				<stop  offset="1" style="stop-color:#FF928E"/>
			</linearGradient>
			<path style="fill:url(#SVGID_00000044164007017478879100000009788388493810621615_);" d="M2694.216,3082.952
				c0.639,10.522,1.163,20.233,1.542,28.885c0.737,16.785-3.604,33.372-12.414,47.676l-45.945,74.61l116.767-68.902l2.325-14.249
				l-19.115-26.281l2.962-35.481C2724.85,3087.658,2709.458,3085.562,2694.216,3082.952z"/>
			
				<linearGradient id="SVGID_00000071547814483365628820000002564878187429699477_" gradientUnits="userSpaceOnUse" x1="2039.9951" y1="3189.5386" x2="2185.8196" y2="3189.5386" gradientTransform="matrix(1 0 0 1 579.8614 0)">
				<stop  offset="0" style="stop-color:#09005D"/>
				<stop  offset="1" style="stop-color:#1A0F91"/>
			</linearGradient>
			<path style="fill:url(#SVGID_00000071547814483365628820000002564878187429699477_);" d="M2629.71,3244.931h37.262
				c6.975,0,13.552-3.202,17.806-8.729c11.616-15.094,35.684-44.543,47.192-45.312c15.492-1.035,13.51,54.041,13.51,54.041h8.684
				l11-68.438c2.768-17.219-5.796-34.278-21.259-42.346c0,0-3.542,26.19-22.744,37.775s-78.142,53.071-78.142,53.071
				s-7.219-1.029-15.144,0.403C2616.12,3227.52,2617.762,3244.931,2629.71,3244.931z"/>
			
				<linearGradient id="SVGID_00000134965193993099958280000003539554792910835099_" gradientUnits="userSpaceOnUse" x1="3037.5896" y1="3350.166" x2="3083.9783" y2="2807.9988">
				<stop  offset="0" style="stop-color:#FEBBBA"/>
				<stop  offset="1" style="stop-color:#FF928E"/>
			</linearGradient>
			<path style="fill:url(#SVGID_00000134965193993099958280000003539554792910835099_);" d="M3062.647,3088.045
				c-3.837-9.577-9.026-29.51-14.801-53.95c-15.558,4.533-30.98,9.38-46.218,14.699c4.41,9.942,7.901,18.308,10.225,24.643
				c24.607,67.039,33.226,122.964,33.557,128.26c0.516,8.275,10.809,16.213,39.179,16.213c14.642,0,21.814-5.87,25.325-11.551
				c2.996-4.847,3.15-10.912,0.626-16.02C3101.587,3172.219,3073.171,3114.31,3062.647,3088.045z"/>
			
				<linearGradient id="SVGID_00000016780123120578883290000001933055283487192982_" gradientUnits="userSpaceOnUse" x1="2063.6594" y1="2067.2815" x2="2088.0217" y2="1889.0535" gradientTransform="matrix(1 0 0 1 579.8614 0)">
				<stop  offset="0" style="stop-color:#FEBBBA"/>
				<stop  offset="1" style="stop-color:#FF928E"/>
			</linearGradient>
			<path style="fill:url(#SVGID_00000016780123120578883290000001933055283487192982_);" d="M2688.326,1765.815l32.463,145.818
				c3.108,12.844-8.601,10.742-21.586,8.294c-21.266-4.009-48.674-12.267-57.837-28.814c-0.932-1.684-1.398-3.588-1.661-5.495
				l-13.947-101.114c-1.107-8.022,3.23-15.808,10.633-19.09l26.913-11.934C2673.666,1748.885,2685.66,1754.798,2688.326,1765.815z"
				/>
			<g>
				
					<linearGradient id="SVGID_00000103230142946808150800000005760956662522692236_" gradientUnits="userSpaceOnUse" x1="1827.307" y1="2351.8499" x2="2039.8777" y2="1973.5454" gradientTransform="matrix(0.9809 -0.1943 0.1943 0.9809 350.7713 -99.2406)">
					<stop  offset="0" style="stop-color:#FEBBBA"/>
					<stop  offset="1" style="stop-color:#FF928E"/>
				</linearGradient>
				<path style="fill:url(#SVGID_00000103230142946808150800000005760956662522692236_);" d="M2626.146,1632.887
					c0,0-34.561,23.395-49.411,82.972c-14.851,59.578,9.283,80.948,34.022,79.639c24.739-1.31,60.608-8.96,91.686-51.701
					C2733.521,1701.055,2671.435,1604.3,2626.146,1632.887z"/>
				
					<linearGradient id="SVGID_00000176008666525474033280000003401923362721114303_" gradientUnits="userSpaceOnUse" x1="2001.2399" y1="-436.3818" x2="2011.3057" y2="-808.8058" gradientTransform="matrix(0.9809 -0.1943 0.1943 0.9809 350.7713 -99.2406)">
					<stop  offset="0" style="stop-color:#E1473D"/>
					<stop  offset="1" style="stop-color:#E9605A"/>
				</linearGradient>
				<path style="fill:url(#SVGID_00000176008666525474033280000003401923362721114303_);" d="M2671.103,1719.767
					c0,0,12.663-85.369-58.215-72.312l-14.332,14.921c0,0-34.693-39.07,3.7-68.604c38.393-29.534,91.67-21.971,121.146,31.797
					c29.476,53.767,40.173,91.548,15.468,124.959c-24.706,33.41-43.29,4.756-43.29,4.756s11.33-28.917,1.929-41.325
					c-9.401-12.408-21.531,7.216-21.531,7.216L2671.103,1719.767z"/>
				
					<linearGradient id="SVGID_00000078760881616705420030000009545620119586166677_" gradientUnits="userSpaceOnUse" x1="1865.5479" y1="2383.8706" x2="2078.1187" y2="2005.5663" gradientTransform="matrix(0.9809 -0.1943 0.1943 0.9809 350.7713 -99.2406)">
					<stop  offset="0" style="stop-color:#FEBBBA"/>
					<stop  offset="1" style="stop-color:#FF928E"/>
				</linearGradient>
				<path style="fill:url(#SVGID_00000078760881616705420030000009545620119586166677_);" d="M2675.198,1734.906
					c0,0,6.252-43.922,28.684-31.366c22.432,12.556-8.084,41.029-20.32,50.717L2675.198,1734.906z"/>
			</g>
			<g>
				
					<linearGradient id="SVGID_00000086659333143516095810000017200203986386706561_" gradientUnits="userSpaceOnUse" x1="1602.994" y1="2228.2251" x2="1799.3387" y2="2674.9536" gradientTransform="matrix(0.9776 -0.2106 0.2106 0.9776 329.4415 -113.5247)">
					<stop  offset="0" style="stop-color:#FEBBBA"/>
					<stop  offset="1" style="stop-color:#FF928E"/>
				</linearGradient>
				<path style="fill:url(#SVGID_00000086659333143516095810000017200203986386706561_);" d="M2283.112,1635.792
					c-0.479,5.16,18.711,8.727,24.818-13.273c-1.679-9.552-4.661-51.378-11.984-57.875
					c-39.004-34.608-108.557-73.541-108.557-73.541c-7.779,11.876,2.423,19.698,2.423,19.698l34.719,23.431
					c-3.622,11.995-8.907,22.601-9.505,36.296c-0.453,10.371,3.378,20.524,10.262,28.391c6.909,7.895,16.211,18.089,24.596,25.828
					C2265.757,1639.395,2283.112,1635.792,2283.112,1635.792z"/>
				
					<linearGradient id="SVGID_00000026124696972097779800000010193471261383214008_" gradientUnits="userSpaceOnUse" x1="-2872.4221" y1="1583.0175" x2="-2819.552" y2="1583.0175" gradientTransform="matrix(-1 0 0 1 -585.5718 0)">
					<stop  offset="0" style="stop-color:#FEBBBA"/>
					<stop  offset="1" style="stop-color:#FF928E"/>
				</linearGradient>
				<path style="fill:url(#SVGID_00000026124696972097779800000010193471261383214008_);" d="M2264.253,1618.742l5.306-2.183
					c-0.705-1.717-17.366-42.203-25.424-50.625c-3.063-3.195-4.541-5.932-4.404-8.138c0.068-1.194,0.659-2.373,1.781-3.574
					l28.093,15.024l12.409,19.428l4.836-3.093l-13.213-20.694l-32.906-17.594l-1.486,1.209c-3.328,2.721-5.048,5.644-5.246,8.941
					c-0.242,3.927,1.713,8.001,5.981,12.462C2246.053,1576.246,2259.561,1607.307,2264.253,1618.742z"/>
			</g>
			
				<linearGradient id="SVGID_00000036940885364077309340000016389404831951536028_" gradientUnits="userSpaceOnUse" x1="2878.2568" y1="3262.8259" x2="2480.7083" y2="2070.1772">
				<stop  offset="0" style="stop-color:#4F52FF"/>
				<stop  offset="1" style="stop-color:#4042E2"/>
			</linearGradient>
			<path style="fill:url(#SVGID_00000036940885364077309340000016389404831951536028_);" d="M2595.979,2245.169l-10.611,59.309
				c14.645,136.759,39.012,281.037,79.267,432.666c12.452,124.748,21.447,244.716,26.416,359.115
				c11.274,4.375,24.229,7.924,57.035,1.677c11.742-162.718,41.96-319.31-15.098-367.373l-13.42-300.273l-46.97-179.493
				L2595.979,2245.169z"/>
			
				<linearGradient id="SVGID_00000070088968260588032680000010061448254863068290_" gradientUnits="userSpaceOnUse" x1="3046.0361" y1="3206.8989" x2="2648.488" y2="2014.251">
				<stop  offset="0" style="stop-color:#4F52FF"/>
				<stop  offset="1" style="stop-color:#4042E2"/>
			</linearGradient>
			<path style="fill:url(#SVGID_00000070088968260588032680000010061448254863068290_);" d="M2670.921,2244.087l40.26,213.043
				c47.247,115.962,94.34,230.94,130.845,278.465c53.806,77.25,107.439,204.326,161.04,340.533
				c19.294,3.37,37.759-2.09,55.358-16.775c-20.042-158.966-59.131-292.507-150.975-355.631
				c-18.942-219.727-46.936-424.846-172.775-472.065L2670.921,2244.087z"/>
			
				<linearGradient id="SVGID_00000071559282755426642120000002261687183873870011_" gradientUnits="userSpaceOnUse" x1="2081.0862" y1="2032.8163" x2="2145.9351" y2="2634.4746" gradientTransform="matrix(1 0 0 1 579.8614 0)">
				<stop  offset="0" style="stop-color:#FE7062"/>
				<stop  offset="1" style="stop-color:#FF928E"/>
			</linearGradient>
			<path style="fill:url(#SVGID_00000071559282755426642120000002261687183873870011_);" d="M2734.674,2231.658
				c-39.929-169.195,61.223-264.89,61.223-264.89c-63.825-61.265-180.114-89.143-180.114-89.143s-110.965,81.125-97.801,144.624
				c7.715,37.217,77.998,222.92,77.998,222.92S2660.969,2275.926,2734.674,2231.658z"/>
			
				<linearGradient id="SVGID_00000110459380373376111740000013537364606723364229_" gradientUnits="userSpaceOnUse" x1="3134.761" y1="1594.9133" x2="2993.8506" y2="1950.5437">
				<stop  offset="0" style="stop-color:#09005D"/>
				<stop  offset="1" style="stop-color:#1A0F91"/>
			</linearGradient>
			<path style="fill:url(#SVGID_00000110459380373376111740000013537364606723364229_);" d="M2739.189,2323.529l137.789-47.321
				c8.254-2.835,17.16,2.033,19.23,10.511l28.199,115.482c1.803,7.383-2.265,14.934-9.422,17.49l-136.43,48.725
				c-8.241,2.943-17.227-1.85-19.372-10.334l-29.557-116.886C2727.733,2333.716,2731.892,2326.035,2739.189,2323.529z"/>
			
				<linearGradient id="SVGID_00000183941553012236875800000001800289656017966757_" gradientUnits="userSpaceOnUse" x1="2819.5159" y1="2455.6711" x2="2806.0955" y2="1822.6935">
				<stop  offset="0" style="stop-color:#09005D"/>
				<stop  offset="1" style="stop-color:#1A0F91"/>
			</linearGradient>
			<path style="fill:url(#SVGID_00000183941553012236875800000001800289656017966757_);" d="M2736.691,2369.137l105.335,19.216
				l62.472-67.678l-8.291-33.955c-2.071-8.479-10.976-13.346-19.231-10.512l-137.788,47.322
				c-7.298,2.505-11.456,10.186-9.564,17.666L2736.691,2369.137z"/>
			
				<linearGradient id="SVGID_00000124128833054551917370000006306250505697243016_" gradientUnits="userSpaceOnUse" x1="2750.3833" y1="2457.137" x2="2736.9629" y2="1824.1586">
				<stop  offset="0" style="stop-color:#09005D"/>
				<stop  offset="1" style="stop-color:#1A0F91"/>
			</linearGradient>
			<path style="fill:url(#SVGID_00000124128833054551917370000006306250505697243016_);" d="M2744.731,2354.523
				c-22.843-179.63-59.314-381.97-1.677-427.484l26.001,14.958c-67.379,24.294-39.154,213.931-9.226,408.589L2744.731,2354.523z"/>
			
				<linearGradient id="SVGID_00000063595217496559253430000005374292855027185794_" gradientUnits="userSpaceOnUse" x1="2164.0681" y1="2154.1333" x2="2325.9043" y2="2154.1333" gradientTransform="matrix(1 0 0 1 579.8614 0)">
				<stop  offset="0" style="stop-color:#FEBBBA"/>
				<stop  offset="1" style="stop-color:#FF928E"/>
			</linearGradient>
			<path style="fill:url(#SVGID_00000063595217496559253430000005374292855027185794_);" d="M2795.897,1966.768
				c0,0,226.577,162.104,28.977,332.442c0,0-7.534,8.524-22.357,12.955c-7.483,2.237-29.619,18.984-40.843,27.717
				c-3.608,2.807-8.821,1.852-11.246-2.023c-1.901-3.036-2.124-6.831-0.593-10.069l28.051-59.315
				c7.79-7.27,19.713-7.786,28.101-1.216c5.351,4.19,13.191,2.436,16.186-3.666c15.275-31.111,44.118-122.611-73.936-226.002
				c-4.438-3.887-5.561-10.315-2.837-15.548C2753.695,2006.108,2772.664,1974.466,2795.897,1966.768z"/>
		</g>
		<g>
			<g>
				<path style="fill:#7D97F4;" d="M1305.261,2915.438c0,0-127.075,140.097-233.203,80.887
					c-85.294-47.586,35.885-35.152,138.676-57.636c8.067-1.764,5.954-13.822-2.231-12.737
					c-80.423,10.663-203.139,19.378-224.453-22.557c-32.177-63.305-0.973-42.774,96.956-33.63
					c97.929,9.145,116.798-15.036,52.875-30.097c-63.923-15.061-165.612,18.251-189.301-12.725
					c-23.688-30.976-36.637-92.463-46.079-118.906c-9.442-26.443,121.901-66.121,157.41-31.407
					c35.509,34.714,64.344,112.198,106.483,126.344c42.139,14.147-3.19-54.394-31.138-89.771
					c-27.948-35.377-39.027-61.67,16.809-53.231c55.836,8.438,85.352,76.585,91.238,127.453
					c5.886,50.868,25.552,79.319,24.662,54.153c-0.89-25.166-10.023-102.343-27.869-125.547
					C1218.251,2692.828,1345.649,2721.145,1305.261,2915.438z"/>
				<path style="opacity:0.53;fill:#FFFFFF;" d="M1294.919,2916.773c-0.559,0.213-1.213,0.119-1.695-0.305
					c-109.072-95.422-292.009-164.779-293.844-165.468c-0.864-0.324-1.3-1.286-0.977-2.152c0.323-0.86,1.287-1.299,2.151-0.975
					c1.841,0.69,185.336,70.253,294.87,166.083c0.693,0.605,0.764,1.661,0.157,2.355
					C1295.395,2916.527,1295.166,2916.68,1294.919,2916.773z"/>
			</g>
			<g>
				
					<linearGradient id="SVGID_00000060708683285394832060000017250674494497266350_" gradientUnits="userSpaceOnUse" x1="1473.0951" y1="3087.7346" x2="1171.1438" y2="2544.2222">
					<stop  offset="0" style="stop-color:#4F52FF"/>
					<stop  offset="1" style="stop-color:#4042E2"/>
				</linearGradient>
				<path style="fill:url(#SVGID_00000060708683285394832060000017250674494497266350_);" d="M1381.979,3004.914
					c0,0-232.069,7.657-270.536-136.489c-30.915-115.848,61.647,1.606,169.282,73.017c8.447,5.604,17.272-6.558,9.323-12.848
					c-78.106-61.792-190.625-162.532-171.865-217.147c28.321-82.448,36.878-37.4,112.478,56.746
					c75.6,94.146,113.037,90.123,71.705,20.902c-41.332-69.22-157.573-130.411-150.502-177.757s50.216-111.29,65.462-142.205
					c15.246-30.915,162.432,50.98,162.164,111.941c-0.269,60.961-43.944,152.576-20.416,201.812
					c23.528,49.236,45.228-49.281,52.541-104.142c7.313-54.861,21.027-87.091,61.289-30.657
					c40.262,56.434,5.4,140.672-34.417,189.318c-39.816,48.646-48.098,90.29-26.672,68.005
					c21.425-22.284,81.662-96.268,86.872-131.824C1503.897,2738.03,1587.77,2874.535,1381.979,3004.914z"/>
				<path style="opacity:0.53;fill:#FFFFFF;" d="M1371.966,2996.938c-0.665-0.311-1.141-0.968-1.179-1.755
					c-9.057-177.677-104.196-398.206-105.157-400.411c-0.452-1.039,0.023-2.245,1.063-2.7c1.034-0.449,2.245,0.025,2.697,1.064
					c0.965,2.212,96.398,223.409,105.491,401.842c0.059,1.129-0.812,2.092-1.943,2.151
					C1372.59,2997.146,1372.26,2997.075,1371.966,2996.938z"/>
			</g>
		</g>
	</g>
</g>
</svg>
